<?xml version="1.0" encoding="utf-8"?>
<!-- Generator: Adobe Illustrator 27.8.1, SVG Export Plug-In . SVG Version: 6.00 Build 0)  -->
<svg version="1.1" id="Layer_1" xmlns="http://www.w3.org/2000/svg" xmlns:xlink="http://www.w3.org/1999/xlink" x="0px" y="0px"
	 width="180px" height="180px" viewBox="0 0 180 180" style="enable-background:new 0 0 180 180;" xml:space="preserve">
<style type="text/css">
	.search-0{fill:#231F20;}
</style>
<path class="search-0" d="M119.22,119.36l-14.9-14.9c5.52-4.86,9.02-11.97,9.02-19.89c0-14.61-11.89-26.5-26.5-26.5
	c-14.61,0-26.5,11.89-26.5,26.5s11.89,26.5,26.5,26.5c5.61,0,10.82-1.76,15.11-4.75l15.16,15.16c0.29,0.29,0.68,0.44,1.06,0.44
	c0.38,0,0.77-0.15,1.06-0.44C119.81,120.9,119.81,119.95,119.22,119.36z M63.34,84.58c0-12.96,10.54-23.5,23.5-23.5
	s23.5,10.54,23.5,23.5s-10.54,23.5-23.5,23.5S63.34,97.53,63.34,84.58z"/>
</svg>
