<?xml version="1.0" encoding="utf-8"?>
<!-- Generator: Adobe Illustrator 27.8.1, SVG Export Plug-In . SVG Version: 6.00 Build 0)  -->
<svg version="1.1" id="Layer_1" xmlns="http://www.w3.org/2000/svg" xmlns:xlink="http://www.w3.org/1999/xlink" x="0px" y="0px"
	 width="180px" height="180px" viewBox="0 0 180 180" style="enable-background:new 0 0 180 180;" xml:space="preserve">
<g>
	<path d="M100,50c0,5.52-4.48,10-10,10s-10-4.48-10-10s4.48-10,10-10S100,44.48,100,50z M90,80c-5.52,0-10,4.48-10,10s4.48,10,10,10
		s10-4.48,10-10S95.52,80,90,80z M90,120c-5.52,0-10,4.48-10,10c0,5.52,4.48,10,10,10s10-4.48,10-10C100,124.48,95.52,120,90,120z"
		/>
</g>
</svg>
