<svg xmlns="http://www.w3.org/2000/svg" xmlns:xlink="http://www.w3.org/1999/xlink" version="1.1" id="Layer_1" x="0px" y="0px" style="enable-background:new 0 0 180 180;" xml:space="preserve" viewBox="69.05 74.24 41.9 31.53">
<style type="text/css">
	.st0{fill:#333333;}
</style>
<g>
	<path class="st0" d="M103.35,89.81c2.83,0,5.14-2.31,5.14-5.14c0-2.83-2.31-5.14-5.14-5.14c-2.83,0-5.14,2.31-5.14,5.14   C98.21,87.5,100.51,89.81,103.35,89.81z M103.35,81.53c1.73,0,3.14,1.41,3.14,3.14c0,1.73-1.41,3.14-3.14,3.14   c-1.73,0-3.14-1.41-3.14-3.14C100.21,82.94,101.62,81.53,103.35,81.53z"/>
	<path class="st0" d="M107.72,90.47h-2.7l-1.67,2.47l-1.67-2.47h-2.7c-0.17,0-0.32,0.02-0.48,0.05c-0.51-0.94-1.49-1.59-2.63-1.59   h-2.91L90,93.3l-2.96-4.36h-2.91c-1.14,0-2.12,0.65-2.63,1.59c-0.16-0.02-0.32-0.05-0.48-0.05h-2.7l-1.67,2.47l-1.67-2.47h-2.7   c-1.78,0-3.23,1.45-3.23,3.23v9.66l0.36,0.3c0.28,0.24,1.97,1.43,7.24,1.43c2.07,0,3.74-0.28,4.93-0.59   c0.94,0.42,3.47,1.26,8.42,1.26c4.69,0,7.2-0.76,8.25-1.19c1.12,0.28,2.75,0.52,5.1,0.52c4.32,0,6.93-1.24,7.04-1.29l0.56-0.27   v-9.82C110.95,91.92,109.5,90.47,107.72,90.47z M71.05,102.31v-8.6c0-0.68,0.55-1.23,1.23-1.23h1.64l2.73,4.03l2.73-4.03h1.64   c0.04,0,0.08,0.02,0.12,0.02v10.06c-1.06,0.27-2.58,0.54-4.48,0.54C73.35,103.09,71.71,102.59,71.05,102.31z M108.95,102.22   c-0.91,0.32-2.87,0.87-5.6,0.87c-2.12,0-3.55-0.21-4.48-0.43V92.5c0.04,0,0.07-0.02,0.12-0.02h1.64l2.73,4.03l2.73-4.03h1.64   c0.68,0,1.23,0.55,1.23,1.23V102.22z"/>
	<path class="st0" d="M76.65,89.81c2.83,0,5.14-2.31,5.14-5.14c0-2.83-2.31-5.14-5.14-5.14c-2.83,0-5.14,2.31-5.14,5.14   C71.51,87.5,73.82,89.81,76.65,89.81z M76.65,81.53c1.73,0,3.14,1.41,3.14,3.14c0,1.73-1.41,3.14-3.14,3.14   c-1.73,0-3.14-1.41-3.14-3.14C73.51,82.94,74.92,81.53,76.65,81.53z"/>
	<path class="st0" d="M90,85.36c3.07,0,5.56-2.49,5.56-5.56c0-3.07-2.49-5.56-5.56-5.56s-5.56,2.49-5.56,5.56   C84.44,82.87,86.93,85.36,90,85.36z"/>
</g>
</svg>