<?xml version="1.0" encoding="utf-8"?>
<!-- Generator: Adobe Illustrator 27.8.1, SVG Export Plug-In . SVG Version: 6.00 Build 0)  -->
<svg version="1.1" id="Layer_1" xmlns="http://www.w3.org/2000/svg" xmlns:xlink="http://www.w3.org/1999/xlink" x="0px" y="0px"
	 width="180px" height="180px" viewBox="0 0 180 180" style="enable-background:new 0 0 180 180;" xml:space="preserve">
<path d="M144.88,39.84l-4.71-4.72c-3.31-3.31-7.7-5.13-12.37-5.13c-4.67,0-9.07,1.82-12.37,5.13l-73.2,73.2
	c-0.61,0.61-1.07,1.35-1.34,2.17l-10.6,32.29c-0.65,1.97-0.13,4.14,1.34,5.6c1.05,1.05,2.45,1.61,3.89,1.61
	c0.57,0,1.15-0.09,1.71-0.27l32.29-10.6c0.82-0.27,1.56-0.73,2.17-1.34l73.2-73.2c3.31-3.3,5.13-7.7,5.13-12.37
	C150,47.54,148.18,43.15,144.88,39.84z M56.61,109.48l55.55-55.55l13.91,13.91l-55.55,55.55L56.61,109.48z M49.89,118.32l11.8,11.8
	l-17.57,5.77L49.89,118.32z M137.1,56.81l-3.25,3.25l-13.91-13.91l3.25-3.25c1.23-1.23,2.86-1.9,4.6-1.9c1.74,0,3.37,0.68,4.6,1.9
	l4.72,4.72c1.23,1.23,1.9,2.86,1.9,4.6C139,53.95,138.33,55.58,137.1,56.81z"/>
</svg>
