<?xml version="1.0" encoding="utf-8"?>
<!-- Generator: Adobe Illustrator 27.8.1, SVG Export Plug-In . SVG Version: 6.00 Build 0)  -->
<svg version="1.1" id="Layer_1" xmlns="http://www.w3.org/2000/svg" xmlns:xlink="http://www.w3.org/1999/xlink" x="0px" y="0px"
	 width="180px" height="180px" viewBox="0 0 180 180" style="enable-background:new 0 0 180 180;" xml:space="preserve">
<style type="text/css">
	.department-search-color{fill:#CC0033;}
	.department-search-color-1{fill:#666666;}
</style>
<g>
	<path class="department-search-color" d="M145.8,142.5v-119h-75v55.36c8.72,3.08,15.54,9.36,19.5,17.14h11.4v18h-7.68c-0.14,2.21-0.48,4.43-1.06,6.65
		c-1.73,6.66-5.28,12.36-9.96,16.73l4.76,8.12h63.14v-3H145.8z M83.7,38h18v18h-18V38z M83.7,85V67h18v18H83.7z M114.4,142.5h-13
		v-19h13V142.5z M132.7,114h-18V96h18V114z M132.7,85h-18V67h18V85z M132.7,56h-18V38h18V56z"/>
	<path class="department-search-color-1" d="M88.12,119.39c4.18-16.03-5.43-32.41-21.46-36.59c-2.53-0.66-5.08-0.98-7.58-0.98
		c-13.32,0-25.49,8.94-29,22.44c-4.18,16.03,5.43,32.41,21.46,36.59c2.53,0.66,5.08,0.98,7.58,0.98c4.61,0,9.07-1.09,13.1-3.05
		l9.63,16.49c0.46,0.8,1.3,1.24,2.16,1.24c0.43,0,0.86-0.11,1.26-0.34c1.19-0.7,1.59-2.23,0.9-3.42l-9.65-16.52
		C82.04,132.28,86.28,126.47,88.12,119.39z M59.12,136.83c-2.12,0-4.25-0.27-6.32-0.81c-13.34-3.47-21.36-17.15-17.88-30.49
		c2.87-11.01,12.81-18.7,24.16-18.7c2.12,0,4.25,0.27,6.32,0.81c13.34,3.47,21.36,17.15,17.88,30.49
		C80.42,129.14,70.48,136.83,59.12,136.83z"/>
</g>
</svg>
