<svg xmlns="http://www.w3.org/2000/svg" xmlns:xlink="http://www.w3.org/1999/xlink" version="1.1" id="Layer_1" x="0px" y="0px" style="enable-background:new 0 0 180 180;" xml:space="preserve" viewBox="40 38.63 100.01 102.73">
  <style type="text/css">
	.reset-icon{fill:#707070;}
</style>
<g>
    <path class="reset-icon" d="M88.63,38.63c-12.87,0-24.97,4.7-34.32,13.13l-9.77-9.77C42.87,40.32,40,41.5,40,43.87v21.88c0,3.67,2.98,6.65,6.65,6.65   h21.88c2.37,0,3.56-2.87,1.88-4.54L60.26,57.71c7.78-6.86,17.76-10.69,28.38-10.69c23.7,0,42.98,19.28,42.98,42.98   s-19.28,42.98-42.98,42.98c-17.69,0-33.36-10.61-39.93-27.04c-0.86-2.15-3.3-3.2-5.45-2.34c-2.15,0.86-3.2,3.3-2.34,5.45   c7.84,19.63,26.57,32.31,47.72,32.31c28.32,0,51.37-23.04,51.37-51.37C140,61.68,116.96,38.63,88.63,38.63z">
    </path>
</g>
</svg>