<svg xmlns="http://www.w3.org/2000/svg" xmlns:xlink="http://www.w3.org/1999/xlink" version="1.1" id="Layer_1" x="0px" y="0px" style="enable-background:new 0 0 180 180;" xml:space="preserve" viewBox="64.5 64.5 51 51">
<style type="text/css">
	.info-icon{fill:#097bb9;}
	.info-icon-1{fill:none;stroke:#333333;stroke-miterlimit:10;}
</style>
<g>
	<g>
		<path class="info-icon" d="M84.62,103.96c0.12-0.53,0.3-1.24,0.54-2.12l3.26-11.89c0.03-0.14,0.06-0.28,0.09-0.41    c0.03-0.14,0.04-0.27,0.04-0.39c0-0.71-0.22-1.15-0.67-1.32c-0.45-0.17-1.26-0.28-2.45-0.34v-1.4c0.99-0.07,2.43-0.21,4.32-0.43    c1.89-0.22,3.23-0.4,4.02-0.56l2.26-0.44l-4.11,15.07c-0.34,1.29-0.58,2.19-0.7,2.69c-0.31,1.28-0.47,2.1-0.47,2.48    s0.09,0.62,0.26,0.74c0.17,0.11,0.36,0.17,0.57,0.17c0.54,0,1.2-0.46,2-1.37c0.79-0.91,1.49-1.87,2.1-2.87l1.16,0.75    c-1.73,2.53-3.05,4.24-3.96,5.12c-1.5,1.45-3.11,2.17-4.81,2.17c-0.97,0-1.83-0.3-2.6-0.89c-0.77-0.59-1.15-1.5-1.15-2.73    C84.31,105.57,84.41,104.89,84.62,103.96z M97.07,73.89c0.69,0.69,1.03,1.53,1.03,2.51c0,0.98-0.35,1.82-1.03,2.52    c-0.69,0.7-1.53,1.05-2.51,1.05c-0.98,0-1.82-0.35-2.52-1.05c-0.7-0.7-1.05-1.54-1.05-2.52c0-0.98,0.35-1.82,1.05-2.51    c0.7-0.69,1.54-1.03,2.52-1.03C95.54,72.86,96.38,73.21,97.07,73.89z"/>
	</g>
	<circle class="info-icon-1" cx="90" cy="90" r="25"/>
</g>
</svg>