<?xml version="1.0" encoding="utf-8"?>
<!-- Generator: Adobe Illustrator 27.8.1, SVG Export Plug-In . SVG Version: 6.00 Build 0)  -->
<svg version="1.1" id="Layer_1" xmlns="http://www.w3.org/2000/svg" xmlns:xlink="http://www.w3.org/1999/xlink" x="0px" y="0px"
	 width="180px" height="180px" viewBox="0 0 180 180" style="enable-background:new 0 0 180 180;" xml:space="preserve">
<style type="text/css">
	.help-grey{fill:#666666;}
</style>
<g>
	<path class="help-grey" d="M142.39,36.11C129.33,23.06,109.48,7.5,89,7.5S48.67,23.06,35.61,36.11C22.56,49.17,7,69.02,7,89.5
		s15.56,40.33,28.61,53.39C48.67,155.94,68.52,171.5,89,171.5c20.48,0,40.33-15.56,53.39-28.61C155.44,129.83,171,109.98,171,89.5
		C171,69.02,155.44,49.17,142.39,36.11z M140.27,140.77C127.61,153.42,108.45,168.5,89,168.5s-38.61-15.08-51.27-27.73
		C25.08,128.11,10,108.95,10,89.5c0-19.45,15.08-38.61,27.73-51.27C50.39,25.58,69.55,10.5,89,10.5c19.45,0,38.61,15.08,51.27,27.73
		C152.92,50.89,168,70.05,168,89.5S152.92,128.11,140.27,140.77z M84.73,100.52v-0.29c0.03-3.09,0.36-5.55,0.97-7.38
		c0.62-1.83,1.49-3.31,2.62-4.44c1.13-1.13,2.49-2.18,4.08-3.13c0.96-0.58,1.81-1.27,2.57-2.08c0.76-0.8,1.36-1.73,1.81-2.78
		c0.45-1.05,0.67-2.22,0.67-3.5c0-1.59-0.37-2.96-1.12-4.13c-0.74-1.17-1.74-2.06-2.99-2.69c-1.25-0.63-2.63-0.95-4.15-0.95
		c-1.33,0-2.61,0.28-3.84,0.83c-1.23,0.55-2.26,1.42-3.08,2.6c-0.83,1.18-1.3,2.73-1.43,4.64h-6.12c0.13-2.75,0.85-5.11,2.15-7.06
		c1.3-1.96,3.03-3.46,5.17-4.49c2.14-1.04,4.53-1.55,7.15-1.55c2.85,0,5.33,0.57,7.44,1.7c2.11,1.13,3.75,2.69,4.9,4.66
		c1.16,1.97,1.74,4.22,1.74,6.75c0,1.78-0.27,3.39-0.81,4.83c-0.54,1.44-1.32,2.73-2.33,3.86c-1.01,1.13-2.23,2.14-3.65,3.01
		c-1.42,0.89-2.57,1.83-3.42,2.8c-0.86,0.98-1.48,2.14-1.87,3.48c-0.39,1.34-0.6,3.02-0.63,5.02v0.29H84.73z M87.83,114.89
		c-1.2,0-2.23-0.43-3.08-1.29c-0.86-0.86-1.29-1.88-1.29-3.08c0-1.2,0.43-2.22,1.29-3.08c0.86-0.86,1.89-1.29,3.08-1.29
		c1.2,0,2.22,0.43,3.08,1.29c0.86,0.86,1.29,1.89,1.29,3.08c0,0.79-0.2,1.52-0.59,2.18c-0.4,0.66-0.92,1.19-1.58,1.59
		C89.38,114.69,88.64,114.89,87.83,114.89z"/>
</g>
<g>
	<path class="help-grey" d="M144.56,46.94l4.3-4.34c-1.34-2.72-3.14-5.28-5.41-7.55c-2.27-2.27-4.82-4.06-7.55-5.41l-4.34,4.3
		C119.04,24.33,104.03,19.5,89,19.5c-15.03,0-30.04,4.83-42.56,14.44l-4.34-4.3c-2.72,1.34-5.28,3.14-7.55,5.41
		c-2.27,2.27-4.06,4.82-5.41,7.55l4.3,4.34c-19.23,25.04-19.23,60.08,0,85.12l-4.3,4.34c1.34,2.72,3.14,5.28,5.41,7.55
		c2.27,2.27,4.82,4.06,7.55,5.41l4.34-4.3C58.96,154.67,73.97,159.5,89,159.5c15.03,0,30.04-4.83,42.56-14.44l4.34,4.3
		c2.72-1.34,5.28-3.14,7.55-5.41s4.06-4.82,5.41-7.55l-4.3-4.34C163.79,107.02,163.79,71.98,144.56,46.94z M150.34,118.84
		L125.7,94.2c0.19-1.55,0.3-3.11,0.3-4.7s-0.11-3.15-0.3-4.7l24.64-24.64C159.16,78.66,159.16,100.34,150.34,118.84z M64.25,114.25
		c-13.67-13.67-13.67-35.83,0-49.5C71.09,57.92,80.04,54.5,89,54.5c8.96,0,17.91,3.42,24.75,10.25c13.67,13.67,13.67,35.83,0,49.5
		c-6.83,6.83-15.79,10.25-24.75,10.25C80.04,124.5,71.09,121.08,64.25,114.25z M118.36,28.14L93.7,52.8c-1.55-0.19-3.11-0.3-4.7-0.3
		c-1.58,0-3.15,0.11-4.7,0.3L59.64,28.14C68.69,23.8,78.67,21.5,89,21.5C99.33,21.5,109.31,23.8,118.36,28.14z M27.66,60.16
		l24.66,24.66c-0.39,3.11-0.39,6.25,0,9.36l-24.66,24.66C18.84,100.34,18.84,78.66,27.66,60.16z M59.64,150.86L84.3,126.2
		c1.55,0.19,3.11,0.3,4.7,0.3c1.58,0,3.15-0.11,4.7-0.3l24.67,24.67c-9.05,4.34-19.03,6.64-29.36,6.64
		C78.67,157.5,68.69,155.2,59.64,150.86z"/>
</g>
</svg>
