<svg xmlns="http://www.w3.org/2000/svg" xmlns:xlink="http://www.w3.org/1999/xlink" version="1.1" id="Layer_1" x="0px" y="0px" style="enable-background:new 0 0 180 180;" xml:space="preserve" viewBox="40 47.29 99.99 85.42">
<g>
	<path d="M116.51,132.71c-0.66,0-1.32-0.21-1.87-0.61l-25.67-18.74H55.1c-8.33,0-15.1-6.78-15.1-15.1V62.39   c0-8.33,6.78-15.1,15.1-15.1h69.79c8.33,0,15.1,6.78,15.1,15.1v35.86c0,8.64-7.03,15.1-13.31,15.1h-7v16.17   c0,1.2-0.67,2.29-1.74,2.83C117.5,132.6,117,132.71,116.51,132.71z M55.1,53.65c-4.82,0-8.74,3.92-8.74,8.74v35.86   c0,4.82,3.92,8.74,8.74,8.74H90c0.67,0,1.33,0.21,1.87,0.61l21.46,15.66v-13.09c0-1.76,1.42-3.18,3.18-3.18h10.18   c2.8,0,6.95-3.67,6.95-8.74V62.39c0-4.82-3.92-8.74-8.74-8.74H55.1z M120.04,66.41c0-1.76-1.42-3.18-3.18-3.18H79.93   c-1.76,0-3.18,1.42-3.18,3.18c0,1.76,1.42,3.18,3.18,3.18h36.93C118.61,69.59,120.04,68.17,120.04,66.41z M120.04,79.17   c0-1.76-1.42-3.18-3.18-3.18H64.04c-1.76,0-3.18,1.42-3.18,3.18c0,1.76,1.42,3.18,3.18,3.18h52.82   C118.61,82.35,120.04,80.93,120.04,79.17z M120.04,91.93c0-1.76-1.42-3.18-3.18-3.18H64.04c-1.76,0-3.18,1.42-3.18,3.18   c0,1.76,1.42,3.18,3.18,3.18h52.82C118.61,95.11,120.04,93.69,120.04,91.93z"/>
</g>
</svg>