<?xml version="1.0" encoding="utf-8"?>
<!-- Generator: Adobe Illustrator 28.2.0, SVG Export Plug-In . SVG Version: 6.00 Build 0)  -->
<svg version="1.1" id="Layer_1" xmlns="http://www.w3.org/2000/svg" xmlns:xlink="http://www.w3.org/1999/xlink" x="0px" y="0px"
	 width="180px" height="180px" viewBox="0 0 180 180" style="enable-background:new 0 0 180 180;" xml:space="preserve">
<style type="text/css">
	.st0{fill:#666666;}
</style>
<g>
	<path class="st0" d="M119.1,155.2c-16.3,0-29.5-13.2-29.5-29.5s13.2-29.5,29.5-29.5s29.5,13.2,29.5,29.5S135.4,155.2,119.1,155.2z
		 M119.1,101.2c-13.5,0-24.5,11-24.5,24.5s11,24.5,24.5,24.5s24.5-11,24.5-24.5S132.6,101.2,119.1,101.2z M138.7,118.8l-5.7-5.7
		l-20.2,20.2l-6.4-6.4l-5.7,5.7l12.1,12.1L138.7,118.8z"/>
	<path class="st0" d="M131.1,49.6v17.1v26.7c-1.6-0.6-3.3-1.1-5-1.4V69.2H36.4v53.3c0,2.8,2.2,5,5,5h43.2c0.1,1.7,0.3,3.4,0.6,5
		H41.4c-5.5,0-10-4.5-10-10V69.2v-2.5v-2.5V49.6c0-1.4,0.3-2.7,0.8-3.9c0.3-0.6,0.6-1.2,0.9-1.7c0.2-0.3,0.4-0.5,0.6-0.8
		c1.6-2,4-3.3,6.7-3.6c0.3,0,0.7-0.1,1-0.1H53V28.5c0-2,1.7-3.7,3.7-3.7c2,0,3.7,1.7,3.7,3.7v11.1h48.7V28.5c0-2,1.7-3.7,3.7-3.7
		c2,0,3.7,1.7,3.7,3.7v11.1h4.5c4.5,0,8.3,3,9.6,7C130.9,47.6,131.1,48.6,131.1,49.6z M98.1,76.9H85.8v10.5h12.4V76.9z M119.6,76.9
		h-12.4v10.5h12.4V76.9z M91.3,105.3h-5.6v10.5h0.3C87.2,112,89,108.5,91.3,105.3z M42.9,115.8h12.4v-10.5H42.9V115.8z M42.9,87.4
		h12.4V76.9H42.9V87.4z M64.4,87.4h12.4V76.9H64.4V87.4z M64.4,115.8h12.4v-10.5H64.4V115.8z"/>
</g>
</svg>
