<?xml version="1.0" encoding="utf-8"?>
<!-- Generator: Adobe Illustrator 27.8.1, SVG Export Plug-In . SVG Version: 6.00 Build 0)  -->
<svg version="1.1" id="Layer_1" xmlns="http://www.w3.org/2000/svg" xmlns:xlink="http://www.w3.org/1999/xlink" x="0px" y="0px"
	 width="180px" height="180px" viewBox="0 0 180 180" style="enable-background:new 0 0 180 180;" xml:space="preserve">
<style type="text/css">
	.notification-fill-0{fill:#666666;}
</style>
<g>
	<path class="notification-fill-0" d="M72.47,159.3C74.88,166.67,81.82,172,90,172s15.12-5.33,17.53-12.7H72.47z"/>
</g>
<path class="notification-fill-0" d="M135.1,113.37V61.72c0-22.14-15.96-40.54-36.99-44.36c0.05-0.38,0.09-0.76,0.09-1.16c0-4.53-3.67-8.2-8.2-8.2
	s-8.2,3.67-8.2,8.2c0,0.39,0.04,0.78,0.09,1.16C60.86,21.18,44.9,39.58,44.9,61.72v51.66l-28.7,27.88v9.02h147.6v-9.02L135.1,113.37
	z"/>
</svg>
