<?xml version="1.0" encoding="utf-8"?>
<!-- Generator: Adobe Illustrator 27.8.1, SVG Export Plug-In . SVG Version: 6.00 Build 0)  -->
<svg version="1.1" id="Layer_1" xmlns="http://www.w3.org/2000/svg" xmlns:xlink="http://www.w3.org/1999/xlink" x="0px" y="0px"
	 width="180px" height="180px" viewBox="0 0 180 180" style="enable-background:new 0 0 180 180;" xml:space="preserve">
<style type="text/css">
	.update-color-0{fill:#666666;}
	.update-color-1{fill:#CC0033;}
</style>
<g>
	<path class="update-color-0" d="M131.61,24.69l11.45-11.45c3.39-3.39,8.6-3.68,11.64-0.64l13.68,13.68c3.04,3.04,2.75,8.25-0.64,11.64
		l-11.45,11.45L131.61,24.69z M127.02,29.29L84.9,71.4L73.96,82.35c-1.6,1.6-2.58,3.7-2.72,5.85l-0.99,14.68
		c-0.31,4.63,3.24,8.18,7.87,7.87l14.68-0.99c2.15-0.15,4.25-1.12,5.85-2.72l10.94-10.94l42.12-42.12L127.02,29.29z"/>
	<path class="update-color-1" d="M139.51,89.5c-5.52,0-10,4.48-10,10c0,27.57-22.43,50-50,50s-50-22.43-50-50c0-20.54,12.46-38.23,30.21-45.91
		l4.63,10.15c3.53,7.74,14.66,7.34,17.64-0.63l9.96-26.7c1.84-4.94-0.67-10.44-5.61-12.29l-26.7-9.96
		c-7.97-2.97-15.56,5.17-12.03,12.91l3.8,8.33C26.77,46.25,9.51,70.89,9.51,99.5c0,38.6,31.4,70,70,70s70-31.4,70-70
		C149.51,93.98,145.03,89.5,139.51,89.5z"/>
</g>
</svg>
