<?xml version="1.0" encoding="utf-8"?>
<!-- Generator: Adobe Illustrator 27.8.1, SVG Export Plug-In . SVG Version: 6.00 Build 0)  -->
<svg version="1.1" id="Layer_1" xmlns="http://www.w3.org/2000/svg" xmlns:xlink="http://www.w3.org/1999/xlink" x="0px" y="0px"
	 width="180px" height="180px" viewBox="0 0 180 180" style="enable-background:new 0 0 180 180;" xml:space="preserve">
<style type="text/css">
	.system-color-0{fill:#CC0033;}
	.system-color-1{fill:#666666;}
</style>
<path class="system-color-0" d="M167.4,79.93l-0.3-2.46l-16.66-5.93c-1.29-4.42-3.07-8.71-5.31-12.78l7.6-15.98l-1.53-1.95
	c-3.95-5.04-8.5-9.6-13.54-13.54l-1.95-1.53l-15.98,7.6c-4.07-2.23-8.35-4.01-12.78-5.31l-5.92-16.66l-2.46-0.3
	c-3.32-0.4-6.46-0.6-9.57-0.6c-3.08,0-6.3,0.2-9.57,0.6l-2.46,0.3l-5.93,16.66c-4.43,1.29-8.71,3.07-12.78,5.31l-15.98-7.6
	l-1.95,1.53c-5.04,3.95-9.6,8.5-13.54,13.54l-1.53,1.95l7.6,15.98c-2.23,4.07-4.01,8.35-5.31,12.78L10.9,77.47l-0.3,2.46
	c-0.4,3.28-0.6,6.5-0.6,9.57c0,3.12,0.2,6.25,0.6,9.57l0.3,2.46l16.66,5.92c1.29,4.43,3.07,8.71,5.31,12.78l-7.6,15.98l1.53,1.95
	c3.95,5.04,8.5,9.59,13.54,13.54l1.95,1.53l15.98-7.6c4.07,2.24,8.35,4.01,12.78,5.31l5.93,16.66l2.46,0.3
	c3.27,0.4,6.49,0.6,9.57,0.6c3.08,0,6.3-0.2,9.57-0.6l2.46-0.3l5.92-16.66c4.42-1.29,8.71-3.07,12.78-5.31l15.98,7.6l1.95-1.53
	c5.04-3.95,9.6-8.5,13.54-13.54l1.53-1.95l-7.6-15.98c2.24-4.07,4.01-8.35,5.31-12.78l16.66-5.92l0.3-2.46
	c0.4-3.27,0.6-6.49,0.6-9.57C168,86.42,167.8,83.2,167.4,79.93z M89,134.5c-24.85,0-45-20.15-45-45s20.15-45,45-45s45,20.15,45,45
	S113.85,134.5,89,134.5z"/>
<g>
	<path class="system-color-1" d="M89,118.5c-15.99,0-29-13.01-29-29c0-15.99,13.01-29,29-29c15.99,0,29,13.01,29,29
		C118,105.49,104.99,118.5,89,118.5z M89,68.5c-11.58,0-21,9.42-21,21c0,11.58,9.42,21,21,21c11.58,0,21-9.42,21-21
		C110,77.92,100.58,68.5,89,68.5z"/>
</g>
</svg>
