<?xml version="1.0" encoding="utf-8"?>
<!-- Generator: Adobe Illustrator 27.8.1, SVG Export Plug-In . SVG Version: 6.00 Build 0)  -->
<svg version="1.1" id="Layer_1" xmlns="http://www.w3.org/2000/svg" xmlns:xlink="http://www.w3.org/1999/xlink" x="0px" y="0px"
	 width="200px" height="200px" viewBox="0 0 200 200" style="enable-background:new 0 0 200 200;" xml:space="preserve">
<path d="M168,101.61V38.48c0-5.52-3.76-9.99-8.4-9.99h-32.75V13.33c0-2.76-2.24-5-5-5h0c-2.76,0-5,2.24-5,5v15.15h-65.7V13.33
	c0-2.76-2.24-5-5-5h0c-2.76,0-5,2.24-5,5v15.15H8.4c-4.64,0-8.4,4.47-8.4,9.99v19.64v85.38c0,5.52,3.76,9.99,8.4,9.99h100.02
	c3.79,21.66,22.71,38.18,45.44,38.18c25.44,0,46.14-20.7,46.14-46.14C200,125.01,186.54,107.59,168,101.61z M5,58.12V38.48
	c0-2.94,1.79-4.99,3.4-4.99h32.75v9.85c0,2.76,2.24,5,5,5h0c2.76,0,5-2.24,5-5v-9.85h65.7v9.85c0,2.76,2.24,5,5,5h0
	c2.76,0,5-2.24,5-5v-9.85h32.75c1.61,0,3.4,2.05,3.4,4.99v23.87H5V58.12z M8.4,148.49c-1.61,0-3.4-2.05-3.4-4.99V67.35h158v32.95
	c-2.96-0.6-6.01-0.91-9.14-0.91c-1.79,0-3.55,0.11-5.29,0.31v-8.71h-20.84v10.83h11.35c-11.65,3.95-21.23,12.43-26.62,23.34v-4.89
	H91.63v10.83h18.4c-1.5,4.54-2.32,9.38-2.32,14.42c0,1,0.04,1.98,0.11,2.96H8.4z M153.86,186.79c-22.75,0-41.26-18.51-41.26-41.26
	c0-22.75,18.51-41.26,41.26-41.26c22.75,0,41.26,18.51,41.26,41.26C195.12,168.28,176.61,186.79,153.86,186.79z M184.47,133.25
	l-40.86,40.86l-18.5-18.5l7.07-7.07l11.43,11.43l33.79-33.79L184.47,133.25z M112.47,101.82H91.63V90.99h20.84V101.82z M19.43,90.99
	h20.84v10.83H19.43V90.99z M55.53,90.99h20.84v10.83H55.53V90.99z M19.43,120.27h20.84v10.83H19.43V120.27z M55.53,120.27h20.84
	v10.83H55.53V120.27z" fill="#014772" />
</svg>
