<?xml version="1.0" encoding="utf-8"?>
<!-- Generator: Adobe Illustrator 27.8.1, SVG Export Plug-In . SVG Version: 6.00 Build 0)  -->
<svg version="1.1" id="Layer_1" xmlns="http://www.w3.org/2000/svg" xmlns:xlink="http://www.w3.org/1999/xlink" x="0px" y="0px"
	 width="180px" height="180px" viewBox="0 0 180 180" style="enable-background:new 0 0 180 180;" xml:space="preserve">
<path d="M170,141.42c0,2.76-2.24,5-5,5H15c-2.76,0-5-2.24-5-5V38.58c0-2.76,2.24-5,5-5s5,2.24,5,5v97.84h145
	C167.76,136.42,170,138.66,170,141.42z M43.64,126.64c5.52,0,10-4.48,10-10c0-2.71-1.08-5.16-2.83-6.96l20.28-37.51
	c0.61,0.12,1.25,0.18,1.9,0.18c2.68,0,5.11-1.06,6.91-2.78l27.65,15.18c-0.04,0.38-0.07,0.76-0.07,1.15c0,5.52,4.48,10,10,10
	c5.52,0,10-4.48,10-10c0-1.62-0.39-3.14-1.07-4.49l26.94-26.94l8.25,8.25c1.26,1.26,3.41,0.37,3.41-1.41V40.58c0-1.1-0.9-2-2-2
	h-20.73c-1.78,0-2.67,2.15-1.41,3.41l8.25,8.25l-26.87,26.87c-1.41-0.77-3.03-1.2-4.76-1.2c-2.97,0-5.63,1.3-7.46,3.36L82.79,64.32
	c0.13-0.63,0.19-1.29,0.19-1.96c0-5.52-4.48-10-10-10c-5.52,0-10,4.48-10,10c0,2.71,1.08,5.16,2.83,6.96l-20.28,37.51
	c-0.61-0.12-1.25-0.19-1.9-0.19c-5.52,0-10,4.48-10,10C33.64,122.16,38.12,126.64,43.64,126.64z"/>
</svg>
