<?xml version="1.0" encoding="utf-8"?>
<!-- Generator: Adobe Illustrator 27.8.1, SVG Export Plug-In . SVG Version: 6.00 Build 0)  -->
<svg version="1.1" id="Layer_1" xmlns="http://www.w3.org/2000/svg" xmlns:xlink="http://www.w3.org/1999/xlink" x="0px" y="0px"
	 width="180px" height="180px" viewBox="0 0 180 180" style="enable-background:new 0 0 180 180;" xml:space="preserve">
<style type="text/css">
	.department-profile-grey{fill:#666666;}
</style>
<g>
	<path class="department-profile-grey" d="M93.6,81.25v74h55v-74H93.6z M145.6,152.25h-49v-68h49V152.25z M138.6,116.75h-35v3h35V116.75z M138.6,129.5
		h-35v3h35V129.5z M138.6,142.25h-35v3h35V142.25z M138.6,91.25h-15v3h15V91.25z M138.6,104h-15v3h15V104z M118.6,107.25h-15v-16h15
		V107.25z M106.6,104.25h9v-10h-9V104.25z"/>
	<path class="department-profile-grey" d="M36.4,24.75v119h-5v3h57.2v-31.5h-8v-18h8v-11h-8v-18h18v8h12.8v-51.5H36.4z M67.6,115.25h-18v-18h18V115.25z
		 M67.6,86.25h-18v-18h18V86.25z M67.6,57.25h-18v-18h18V57.25z M81,125v19H68v-19H81z M98.6,57.25h-18v-18h18V57.25z"/>
</g>
</svg>
