<?xml version="1.0" encoding="utf-8"?>
<!-- Generator: Adobe Illustrator 27.8.1, SVG Export Plug-In . SVG Version: 6.00 Build 0)  -->
<svg version="1.1" id="Layer_1" xmlns="http://www.w3.org/2000/svg" xmlns:xlink="http://www.w3.org/1999/xlink" x="0px" y="0px"
	 width="180px" height="180px" viewBox="0 0 180 180" style="enable-background:new 0 0 180 180;" xml:space="preserve">
<style type="text/css">
	.course-color{fill:#666666;}
	.course-color-1{fill:#CC0033;}
</style>
<g>
	<g>
		<path class="course-color" d="M90,129.98c-1.66,0-3-1.34-3-3v-23.03c0-1.66,1.34-3,3-3c1.66,0,3,1.34,3,3v23.03
			C93,128.64,91.66,129.98,90,129.98z"/>
	</g>
	<circle class="course-color-1" cx="90" cy="140.35" r="6"/>
	<g>
		<path class="course-color" d="M115.12,162.29c-1.66,0-3-1.34-3-3v-7.65c0-8.86-4.74-12.88-4.94-13.04c-1.27-1.05-1.47-2.93-0.43-4.21
			c1.04-1.28,2.9-1.49,4.18-0.47c0.29,0.23,7.19,5.84,7.19,17.73v7.65C118.12,160.95,116.78,162.29,115.12,162.29z"/>
	</g>
	<circle class="course-color-1" cx="115.12" cy="172.65" r="6"/>
	<circle class="course-color-1" cx="138.66" cy="159.84" r="6"/>
	<circle class="course-color-1" cx="166.02" cy="141.78" r="6"/>
	<g>
		<path class="course-color" d="M138.66,149.54c-1.66,0-3-1.34-3-3v-7.97c0-4.38-3.19-5.82-8.83-8c-5.74-2.21-13.6-5.24-13.6-15.15v-11.47
			c0-1.66,1.34-3,3-3c1.66,0,3,1.34,3,3v11.47c0,5.52,3.53,7.15,9.76,9.55c5.65,2.17,12.68,4.88,12.68,13.59v7.97
			C141.66,148.2,140.32,149.54,138.66,149.54z"/>
	</g>
	<g>
		<path class="course-color" d="M166.02,131.41c-1.66,0-3-1.34-3-3c0-6.35-4.24-8.41-11.22-11.04c-5.07-1.92-10.83-4.09-10.83-10.22v-3.2
			c0-1.66,1.34-3,3-3c1.66,0,3,1.34,3,3v3.2c0,1.79,2.22,2.82,6.95,4.6c6.37,2.41,15.1,5.7,15.1,16.66
			C169.02,130.07,167.68,131.41,166.02,131.41z"/>
	</g>
	<g>
		<path class="course-color" d="M64.88,162.29c-1.66,0-3-1.34-3-3v-7.65c0-11.88,6.9-17.49,7.19-17.73c1.3-1.03,3.18-0.81,4.21,0.49
			c1.02,1.29,0.81,3.17-0.47,4.2c-0.24,0.2-4.94,4.23-4.94,13.04v7.65C67.88,160.95,66.53,162.29,64.88,162.29z"/>
	</g>
	<circle class="course-color-1" cx="64.88" cy="172.65" r="6"/>
	<circle class="course-color-1" cx="41.34" cy="159.84" r="6"/>
	<circle class="course-color-1" cx="13.98" cy="141.78" r="6"/>
	<g>
		<path class="course-color" d="M41.34,149.54c-1.66,0-3-1.34-3-3v-7.97c0-8.71,7.03-11.42,12.68-13.59c6.23-2.4,9.76-4.03,9.76-9.55v-11.47
			c0-1.66,1.34-3,3-3c1.66,0,3,1.34,3,3v11.47c0,9.91-7.86,12.94-13.6,15.15c-5.64,2.17-8.83,3.61-8.83,8v7.97
			C44.34,148.2,43,149.54,41.34,149.54z"/>
	</g>
	<g>
		<path class="course-color" d="M13.98,131.41c-1.66,0-3-1.34-3-3c0-10.95,8.73-14.25,15.1-16.66c4.72-1.78,6.95-2.82,6.95-4.6v-3.2
			c0-1.66,1.34-3,3-3c1.66,0,3,1.34,3,3v3.2c0,6.13-5.75,8.3-10.83,10.22c-6.98,2.64-11.22,4.7-11.22,11.04
			C16.98,130.07,15.64,131.41,13.98,131.41z"/>
	</g>
	<g>
		<path class="course-color" d="M81.24,83.82c0,0-48.37,0-63.22,0c-4.64,0-7.04-0.9-8.33-2.34v-67.4h3.28V8.62H5.23v75.52
			c0,4.08,3.32,7.39,7.39,7.39h74.29l0-2.23C86.91,87.19,86.36,83.82,81.24,83.82z"/>
		<path class="course-color-1" d="M86.91,78.97V16.52c0-6.59-5.52-11.94-12.32-11.94c-16.63,0-33.25,0-49.88,0c-4.18,0.07-6.6-0.93-8.06-1.89
			c-0.67-0.44-2.47-1.76-3.27-1.2c-0.2,0.14-0.4,0.34-0.4,0.66c0,1.23,0,2.44,0,2.44v62.41c0,6.59,5.52,11.94,12.32,11.94
			c15.32,0,45.56-0.33,51.51,0.05c2.41,0.15,3.85,0.25,5.58,1.08c1.87,0.9,2.95,2.12,3.78,1.72C86.87,81.43,86.96,80.11,86.91,78.97
			z M72.12,67.82H27.76c-1.56,0-2.82-1.26-2.82-2.82c0-1.56,1.26-2.82,2.82-2.82h44.36c1.56,0,2.82,1.26,2.82,2.82
			C74.94,66.55,73.68,67.82,72.12,67.82z M72.12,44.6H27.76c-1.56,0-2.82-1.26-2.82-2.82s1.26-2.82,2.82-2.82h44.36
			c1.56,0,2.82,1.26,2.82,2.82S73.68,44.6,72.12,44.6z M72.12,21.38H27.76c-1.56,0-2.82-1.26-2.82-2.82s1.26-2.82,2.82-2.82h44.36
			c1.56,0,2.82,1.26,2.82,2.82S73.68,21.38,72.12,21.38z"/>
	</g>
	<g>
		<path class="course-color" d="M98.76,83.82c0,0,48.37,0,63.22,0c4.64,0,7.04-0.9,8.33-2.34v-67.4h-3.28V8.62h7.75v75.52
			c0,4.08-3.32,7.39-7.39,7.39H93.09l0-2.23C93.09,87.19,93.64,83.82,98.76,83.82z"/>
		<path class="course-color-1" d="M93.83,81.77c0.83,0.4,1.9-0.82,3.78-1.72c1.73-0.84,3.17-0.93,5.58-1.08c5.96-0.38,36.2-0.05,51.51-0.05
			c6.81,0,12.32-5.35,12.32-11.94V4.58c0,0,0-1.21,0-2.44c0-0.32-0.19-0.52-0.4-0.66c-0.81-0.56-2.61,0.76-3.27,1.2
			c-1.46,0.97-3.88,1.96-8.06,1.89c-16.63,0-33.25,0-49.88,0c-6.81,0-12.32,5.35-12.32,11.94v62.45
			C93.04,80.11,93.13,81.43,93.83,81.77z M105.06,64.99c0-1.56,1.26-2.82,2.82-2.82h44.36c1.56,0,2.82,1.26,2.82,2.82
			c0,1.56-1.26,2.82-2.82,2.82h-44.36C106.32,67.82,105.06,66.55,105.06,64.99z M105.06,41.77c0-1.56,1.26-2.82,2.82-2.82h44.36
			c1.56,0,2.82,1.26,2.82,2.82s-1.26,2.82-2.82,2.82h-44.36C106.32,44.6,105.06,43.33,105.06,41.77z M105.06,18.55
			c0-1.56,1.26-2.82,2.82-2.82h44.36c1.56,0,2.82,1.26,2.82,2.82s-1.26,2.82-2.82,2.82h-44.36
			C106.32,21.38,105.06,20.11,105.06,18.55z"/>
	</g>
</g>
</svg>
