<?xml version="1.0" encoding="utf-8"?>
<!-- Generator: Adobe Illustrator 27.8.1, SVG Export Plug-In . SVG Version: 6.00 Build 0)  -->
<svg version="1.1" id="rutgers_logo" xmlns="http://www.w3.org/2000/svg" xmlns:xlink="http://www.w3.org/1999/xlink" x="0px"
	 y="0px" width="50.4px" height="64.8px" viewBox="0 0 50.4 64.8" style="enable-background:new 0 0 50.4 64.8;"
	 xml:space="preserve">
<style type="text/css">
	.shield-white-0{fill:#FFFFFF;}
</style>
<g>
	<g>
		<path class="shield-white-0" d="M32.3,4.2h-3.8l-0.4,10.4c0.1,0,0.2,0,0.3,0.1L32.3,4.2z"/>
		<polygon class="shield-white-0" points="38.4,17.5 46.3,11.8 46.3,4.7 37,17.5 		"/>
		<path class="shield-white-0" d="M34,17.1L45.9,4.2h-6.3l-5.8,12.6C33.8,16.9,33.9,17,34,17.1z"/>
		<path class="shield-white-0" d="M31.3,15.6l7-11.4h-4.6L31,15.5C31.1,15.5,31.2,15.5,31.3,15.6z"/>
		<polygon class="shield-white-0" points="46.3,17.5 46.3,13.5 42,17.5 		"/>
		<path class="shield-white-0" d="M25.2,14.4c0.1,0,0.1,0,0.2,0L27,4.2h-3.5l1.6,10.1C25.1,14.4,25.1,14.4,25.2,14.4z"/>
		<path class="shield-white-0" d="M22.4,14.6L21.9,4.2h-3.8L22,14.7C22.1,14.6,22.2,14.6,22.4,14.6z"/>
		<polygon class="shield-white-0" points="13.4,17.5 4.1,4.7 4.1,11.8 12,17.5 		"/>
		<path class="shield-white-0" d="M16.7,16.9L10.9,4.2H4.6l11.9,12.8C16.5,17,16.6,16.9,16.7,16.9z"/>
		<path class="shield-white-0" d="M19.4,15.5L16.7,4.2h-4.6l7,11.4C19.2,15.5,19.3,15.5,19.4,15.5z"/>
		<polygon class="shield-white-0" points="4.1,13.5 4.1,17.5 8.5,17.5 		"/>
		<path class="shield-white-0" d="M1.5,1.6v35.4c0.1,5.9,2.1,11,5.8,15.2c6.6,7.4,16.5,9.2,17.6,9.4c0.1,0,0.1,0,0.1,0l0.2,0l0.2,0
			c0.4-0.1,10.9-1.7,17.8-9.4c1.5-1.8,2.8-3.7,3.7-5.8c1.2-2.8,1.9-6,2-9.4V1.6H1.5z M47.7,37c-0.1,3.2-0.7,6.2-1.9,8.9
			c-0.9,2-2.1,3.8-3.5,5.5c-6.6,7.4-16.6,9-17,9l0,0l0,0c0,0-0.1,0-0.1,0c-1.1-0.2-10.6-1.9-16.9-9C4.7,47.5,2.8,42.6,2.7,37V2.9h45
			V37z"/>
		<polygon class="shield-white-0" points="12.6,33.2 12.6,34.5 13.8,34.5 13.8,33.3 13.8,33.2 		"/>
		<path class="shield-white-0" d="M10.2,32.3L10.2,32.3l3.6,0.1v-4.1l-0.1,0.1c-0.2,0.1-0.5,0.1-0.8,0.2c-0.1,0-0.1,0-0.1,0c0,0-0.1,0-0.1,0
			c-0.6,0-1.2-0.1-1.8-0.4c-0.1,0-0.1,0-0.2-0.1c-0.2-0.1-0.4-0.1-0.6-0.1c-0.8,0-1.5,0.7-1.5,1.5c0,0.5,0.1,0.7,0.7,1.3
			C9.7,31.2,10,31.7,10.2,32.3z"/>
		<rect x="17.1" y="33.2" class="shield-white-0" width="1.2" height="1.3"/>
		<path class="shield-white-0" d="M4.1,37c0.1,5.3,1.8,9.8,5.1,13.5c5.2,5.8,12.9,7.9,15.3,8.4v-40H4.1V37z M10.5,41.8h-2v-0.2l0.4,0
			c0.3,0,0.3-0.1,0.3-0.7v-1.5c0-0.7,0-0.8-0.2-0.8c-0.1,0-0.1,0-0.2,0l-0.4,0.1l-0.1-0.2c0.2-0.1,1.3-0.5,1.4-0.5l0.1,0.1v2.8
			c0,0.6,0,0.7,0.3,0.7l0.4,0L10.5,41.8L10.5,41.8z M19.6,36.4v0.4H9v-0.4H19.6z M9,36v-0.4h10.6V36H9z M12.9,40.3
			c-0.3,0.7-0.4,0.8-0.6,1.6l-0.1,0c-0.3-0.1-0.4-0.2-0.6-0.4c0.1-0.4,0.8-1.2,1.3-2c0.3-0.4,0.3-0.7,0.4-0.9h-1.1
			c-0.7,0-0.6,0-0.8,0.5l-0.1,0c0-0.3,0.1-0.7,0.3-1h2.3l0.1,0.1C13.8,38.8,13.6,39.1,12.9,40.3z M15.8,41.9c-0.7,0-1.3-0.5-1.3-1.6
			c0-1.6,1-2.3,2-2.3c0.3,0,0.5,0.1,0.6,0.1l0,0.2c-0.1,0-0.2,0-0.4,0c-0.8,0-1.4,0.7-1.4,2c0,0.8,0.2,1.4,0.7,1.4
			c0.4,0,0.5-0.4,0.5-0.8c0-0.6-0.3-1.1-0.8-1.1c-0.1,0-0.1,0-0.1,0l0-0.1c0.1-0.1,0.3-0.2,0.7-0.2c0.5,0,0.9,0.4,0.9,1
			C17.1,41.4,16.5,41.9,15.8,41.9z M19,41.9c-0.7,0-1.3-0.5-1.3-1.6c0-1.6,1-2.3,2-2.3c0.3,0,0.5,0.1,0.6,0.1l0,0.2
			c-0.1,0-0.2,0-0.4,0c-0.8,0-1.4,0.7-1.4,2c0,0.8,0.2,1.4,0.7,1.4c0.4,0,0.5-0.4,0.5-0.8c0-0.6-0.3-1.1-0.8-1.1c0,0-0.1,0-0.1,0
			l0-0.1c0.1-0.1,0.3-0.2,0.6-0.2c0.5,0,0.9,0.4,0.9,1C20.3,41.4,19.7,41.9,19,41.9z M14.3,24.2c0.5,0,0.9,0.4,0.9,0.9
			s-0.4,0.9-0.9,0.9s-0.9-0.4-0.9-0.9S13.8,24.2,14.3,24.2z M10.1,26.7c0.4,0,0.8,0.1,1.1,0.2c0.1,0,0.1,0,0.1,0.1
			c0.4,0.2,0.9,0.3,1.3,0.3h0.1c0,0,0.1,0,0.1,0c0.5,0,1-0.3,1.2-0.8h0.6c0.2,0.5,0.7,0.8,1.2,0.8c0,0,0.1,0,0.1,0h0
			c0.4,0,0.8-0.1,1.2-0.2c0.1-0.1,0.2-0.1,0.3-0.1c0.3-0.1,0.7-0.2,1-0.2c1.5,0,2.6,1.2,2.6,2.6c0,0.7-0.4,1.4-1,2.1c0,0,0,0,0,0
			c-0.4,0.4-0.6,0.9-0.7,1.5c0,0.1,0,0.2,0,0.3v0.3c0,0.3,0.1,0.6,0.2,0.9v0.6H9v-0.6c0.2-0.4,0.2-0.8,0.2-1.2c0-0.2,0-0.3,0-0.4
			c-0.1-0.5-0.3-1.1-0.7-1.5c0,0,0,0-0.1,0c-0.6-0.7-1-1.4-1-2.1C7.4,27.9,8.6,26.7,10.1,26.7z"/>
		<rect x="10.3" y="33.2" class="shield-white-0" width="1.2" height="1.3"/>
		<path class="shield-white-0" d="M18.4,32.3c0.2-0.6,0.5-1.1,0.9-1.6c0.1-0.1,0.7-0.9,0.7-1.4c0-0.8-0.7-1.5-1.5-1.5c-0.2,0-0.4,0-0.6,0.1
			c-0.1,0-0.1,0-0.2,0.1l-0.1,0.1c-0.5,0.2-1.1,0.3-1.7,0.3c0,0,0,0-0.1,0c0,0-0.1,0-0.2,0c-0.3,0-0.5-0.1-0.8-0.2l-0.1-0.1v4.2
			L18.4,32.3L18.4,32.3z"/>
		<rect x="14.8" y="33.2" class="shield-white-0" width="1.2" height="1.3"/>
		<path class="shield-white-0" d="M32.5,34.7c0.3,0,0.5-0.1,0.6-0.1c0.2,0,0.3-0.1,0.6-0.1c0.4,0,0.7,0.1,1.1,0.2v-0.5
			c-0.4-0.1-0.8-0.2-1.1-0.2c-0.3,0-0.5,0-0.7,0.1c-0.2,0-0.3,0.1-0.6,0.1c-0.3,0-0.7,0-1-0.1v0.5C31.8,34.7,32.1,34.7,32.5,34.7z"
			/>
		<path class="shield-white-0" d="M32.5,33.4c0.3,0,0.5-0.1,0.6-0.1c0.2,0,0.3-0.1,0.6-0.1c0.4,0,0.7,0.1,1.1,0.2V33c-0.4-0.1-0.8-0.2-1.1-0.2
			c-0.3,0-0.5,0-0.7,0.1c-0.2,0-0.3,0.1-0.6,0.1c-0.3,0-0.7,0-1-0.1v0.5C31.8,33.5,32.1,33.5,32.5,33.4z"/>
		<path class="shield-white-0" d="M32.5,32.2c0.3,0,0.5-0.1,0.6-0.1c0.2,0,0.3-0.1,0.6-0.1c0.4,0,0.7,0.1,1.1,0.2v-0.5
			c-0.4-0.1-0.8-0.2-1.1-0.2c-0.3,0-0.5,0-0.7,0.1c-0.2,0-0.3,0.1-0.6,0.1c-0.3,0-0.7,0-1-0.1v0.4C31.8,32.2,32.1,32.3,32.5,32.2z"
			/>
		<path class="shield-white-0" d="M32.5,29.8c0.3,0,0.5-0.1,0.6-0.1c0.2,0,0.3-0.1,0.6-0.1c0.4,0,0.7,0.1,1.1,0.2v-0.5
			c-0.4-0.1-0.8-0.2-1.1-0.2c-0.3,0-0.5,0-0.7,0.1c-0.2,0-0.3,0.1-0.6,0.1c-0.3,0-0.7,0-1-0.1v0.5C31.8,29.8,32.1,29.8,32.5,29.8z"
			/>
		<path class="shield-white-0" d="M32.5,31c0.3,0,0.5-0.1,0.6-0.1c0.2,0,0.3-0.1,0.6-0.1c0.4,0,0.7,0.1,1.1,0.2v-0.5c-0.4-0.1-0.8-0.2-1.1-0.2
			c-0.3,0-0.5,0-0.7,0.1c-0.2,0-0.3,0.1-0.6,0.1c-0.3,0-0.7,0-1-0.1V31C31.8,31,32.1,31,32.5,31z"/>
		<path class="shield-white-0" d="M32.5,28.6c0.3,0,0.5-0.1,0.6-0.1c0.2,0,0.3-0.1,0.6-0.1c0.4,0,0.7,0.1,1.1,0.2v-0.5C34.5,28,34.1,28,33.7,28
			c-0.3,0-0.5,0-0.7,0.1c-0.2,0-0.3,0.1-0.6,0.1c-0.3,0-0.7,0-1-0.1v0.5C31.8,28.6,32.1,28.6,32.5,28.6z"/>
		<path class="shield-white-0" d="M32.6,36.3c1.1-0.2,2.1-0.1,2.9,0.4v-0.4l-0.1-0.1c-0.2-0.1-0.7-0.4-1.7-0.5c0,0-0.1,0-0.1,0
			c-0.1,0-0.2,0-0.2,0c-0.2,0-0.5,0-0.7,0.1C32,36,31.3,36,30.4,35.8l-0.1,0v-1.6v-5.8V28v-0.4v-0.1c-0.1,0-0.3-0.1-0.4-0.1v0.1v0.4
			V29v4.6V36C31,36.3,31.9,36.4,32.6,36.3z"/>
		<path class="shield-white-0" d="M32.6,37.1c1.1-0.2,2.1-0.1,2.9,0.3v-0.3l0,0c0,0,0,0-0.1,0c-0.7-0.4-1.7-0.6-2.7-0.4c-0.8,0.2-1.9,0-3.1-0.3
			l-0.1,0v-3.7v-2.7v-2.1c-0.1,0-0.2-0.1-0.4-0.1v8.9C30.5,37.1,31.7,37.3,32.6,37.1z"/>
		<path class="shield-white-0" d="M39.1,33.3c0.2,0,0.4,0.1,0.6,0.1c0.4,0,0.7,0,1.1-0.1v-0.5c-0.3,0.1-0.7,0.1-1,0.1c-0.2,0-0.4-0.1-0.6-0.1
			c-0.2,0-0.4-0.1-0.7-0.1c-0.4,0-0.7,0.1-1.1,0.2v0.5c0.4-0.2,0.8-0.2,1.1-0.2C38.8,33.3,38.9,33.3,39.1,33.3z"/>
		<path class="shield-white-0" d="M39.7,36.3c0.7,0.1,1.7,0,2.8-0.3v-2.5V29v-1.1v-0.4v-0.1c-0.1,0-0.3,0.1-0.4,0.1v0.1V28v0.3v5.8v1.6l-0.2,0
			C41,36,40.2,36,39.6,35.9c-0.3,0-0.5-0.1-0.7-0.1c-0.1,0-0.2,0-0.2,0c0,0-0.1,0-0.1,0c-0.9,0-1.5,0.3-1.7,0.5l-0.1,0.1v0.4
			C37.5,36.2,38.5,36.1,39.7,36.3z"/>
		<path class="shield-white-0" d="M39.1,32.1c0.2,0,0.4,0.1,0.6,0.1c0.4,0,0.7,0,1.1-0.1v-0.5c-0.3,0.1-0.7,0.1-1,0.1c-0.2,0-0.4-0.1-0.6-0.1
			c-0.2,0-0.4-0.1-0.7-0.1c-0.4,0-0.7,0.1-1.1,0.2v0.5c0.4-0.2,0.8-0.2,1.1-0.2C38.8,32.1,38.9,32.1,39.1,32.1z"/>
		<path class="shield-white-0" d="M25.9,58.9c2.5-0.5,10.1-2.5,15.3-8.4c3.3-3.7,5-8.2,5.1-13.5V18.9H25.9V58.9z M33.2,40.8l-0.8-0.4l-0.8,0.4
			l0.1-0.9l-0.6-0.6l0.9-0.1l0.4-0.8l0.4,0.8l0.9,0.1L33,39.9L33.2,40.8z M40.7,40.8l-0.8-0.4l-0.8,0.4l0.2-0.9l-0.6-0.6l0.9-0.1
			l0.4-0.8l0.4,0.8l0.9,0.1l-0.6,0.6L40.7,40.8z M36.3,35v-7.5c0.2-0.1,0.4-0.3,0.7-0.4c0.3-0.1,0.9-0.3,1.6-0.3c0.3,0,0.7,0,1,0.1
			c0.1,0,0.3,0,0.5,0c0.5,0,1.1,0,1.7-0.2l0.2,0v0.5c0.2,0,0.3-0.1,0.5-0.1l0.2-0.1v0.5c0.2-0.1,0.3-0.1,0.5-0.2l0.3-0.1v9.7l-0.1,0
			c-1.5,0.6-2.8,0.8-3.8,0.6c-1-0.2-2-0.1-2.7,0.3h-0.5L36.3,35C36.4,35,36.3,35,36.3,35z M36.5,40.2l0.9,0.1L36.8,41l0.2,0.9
			l-0.8-0.4l-0.8,0.4l0.2-0.9l-0.6-0.6l0.9-0.1l0.4-0.8L36.5,40.2z M28.7,27.1l0.3,0.1c0.2,0.1,0.3,0.1,0.5,0.2v-0.5l0.2,0.1
			c0.2,0.1,0.4,0.1,0.5,0.1v-0.5l0.2,0c0.6,0.1,1.2,0.2,1.7,0.2c0.2,0,0.3,0,0.5,0c0.4-0.1,0.7-0.1,1-0.1c0.7,0,1.3,0.2,1.6,0.3
			c0.2,0.1,0.5,0.2,0.7,0.4V35v2.8h-0.5c-0.7-0.4-1.6-0.5-2.7-0.3c-1,0.2-2.3,0-3.9-0.6l-0.1,0L28.7,27.1L28.7,27.1z"/>
		<path class="shield-white-0" d="M39.7,37.1c0.9,0.2,2.1,0,3.5-0.5v-8.9c-0.1,0-0.3,0.1-0.4,0.1v2.1v2.7v3.7l-0.1,0c-1.2,0.4-2.2,0.5-3.1,0.3
			c-1.1-0.2-2-0.1-2.7,0.4c0,0,0,0-0.1,0l0,0v0.3C37.5,37,38.5,36.9,39.7,37.1z"/>
		<path class="shield-white-0" d="M39.1,34.6c0.2,0,0.4,0.1,0.6,0.1c0.4,0,0.7,0,1.1-0.1v-0.5c-0.3,0.1-0.7,0.1-1,0.1c-0.2,0-0.4,0-0.6-0.1
			c-0.2,0-0.4-0.1-0.7-0.1c-0.4,0-0.7,0.1-1.1,0.2v0.5c0.4-0.2,0.8-0.2,1.1-0.2C38.8,34.5,38.9,34.5,39.1,34.6z"/>
		<path class="shield-white-0" d="M39.1,29.7c0.2,0,0.4,0.1,0.6,0.1c0.4,0,0.7,0,1.1-0.1v-0.5c-0.3,0.1-0.7,0.1-1,0.1c-0.2,0-0.4,0-0.6-0.1
			c-0.2,0-0.4-0.1-0.7-0.1c-0.4,0-0.7,0.1-1.1,0.2v0.5c0.4-0.2,0.8-0.2,1.1-0.2C38.8,29.6,38.9,29.7,39.1,29.7z"/>
		<path class="shield-white-0" d="M39.1,28.5c0.2,0,0.4,0.1,0.6,0.1c0.4,0,0.7,0,1.1-0.1v-0.5c-0.3,0.1-0.7,0.1-1,0.1c-0.2,0-0.4,0-0.6-0.1
			C39,28,38.8,28,38.6,28c-0.4,0-0.7,0.1-1.1,0.2v0.5c0.4-0.2,0.8-0.2,1.1-0.2C38.8,28.4,38.9,28.5,39.1,28.5z"/>
		<path class="shield-white-0" d="M39.1,30.9c0.2,0,0.4,0.1,0.6,0.1c0.4,0,0.7,0,1.1-0.1v-0.5c-0.3,0.1-0.7,0.1-1,0.1c-0.2,0-0.4,0-0.6-0.1
			c-0.2,0-0.4-0.1-0.7-0.1c-0.4,0-0.7,0.1-1.1,0.2v0.5c0.4-0.2,0.8-0.2,1.1-0.2C38.8,30.9,38.9,30.9,39.1,30.9z"/>
	</g>
</g>
</svg>
