<svg version="1.1" id="Layer_1" xmlns="http://www.w3.org/2000/svg" xmlns:xlink="http://www.w3.org/1999/xlink" x="0px" y="0px"
	 width="100%" viewBox="0 0 646 434" enable-background="new 0 0 646 434" xml:space="preserve">
<path fill="#B2B2B2" opacity="1.000000" stroke="none" 
	d="
M647.000000,2.000000 
	C647.000000,145.689987 647.000000,289.379974 646.531982,433.506653 
	C643.565735,433.933136 641.067444,433.914062 638.569214,433.914032 
	C428.876007,433.912659 219.182770,433.912415 9.489555,433.916382 
	C6.659703,433.916443 3.829852,433.970917 1.000000,434.000000 
	C1.000000,290.309998 1.000000,146.620010 1.466731,2.512201 
	C214.457977,2.091996 426.982513,2.089913 639.507019,2.083621 
	C642.004700,2.083547 644.502319,2.029078 647.000000,2.000000 
M633.933289,286.500000 
	C633.933289,199.169189 633.934570,111.838379 633.930664,24.507568 
	C633.930359,17.881733 633.913147,17.861301 627.371643,17.861183 
	C426.044525,17.857540 224.717392,17.875835 23.390360,17.756474 
	C18.356199,17.753489 16.889194,19.112041 16.895151,24.202108 
	C17.030909,140.198380 16.998260,256.194824 17.012926,372.191254 
	C17.013147,373.930328 17.212719,375.669403 17.404028,378.792236 
	C19.890289,376.453461 21.438932,375.074066 22.902042,373.609253 
	C78.728233,317.717285 134.542145,261.813049 190.368774,205.921494 
	C206.101501,190.170471 224.200684,189.985336 240.730392,205.154221 
	C249.688889,213.375229 258.779816,221.460648 268.012909,229.371613 
	C281.108643,240.592117 301.229462,239.573074 312.933838,227.126556 
	C319.436737,220.211304 325.611969,212.988770 331.974243,205.940292 
	C349.721741,186.278580 367.212860,166.375107 385.352325,147.081497 
	C396.423645,135.305801 410.758820,129.702423 426.936523,128.980591 
	C448.212006,128.031311 465.293488,136.433273 479.665161,151.778702 
	C500.848816,174.397644 522.402527,196.669815 543.780518,219.106934 
	C569.638794,246.246353 595.471191,273.410461 621.333862,300.545837 
	C625.024963,304.418549 628.822754,308.189606 632.571106,312.007751 
	C633.025146,311.771667 633.479126,311.535583 633.933105,311.299469 
	C633.933105,303.366333 633.933105,295.433167 633.933289,286.500000 
z"/>
<path fill="#F0F0F0" opacity="1.000000" stroke="none" 
	d="
M647.000000,1.500000 
	C644.502319,2.029078 642.004700,2.083547 639.507019,2.083621 
	C426.982513,2.089913 214.457977,2.091996 1.466731,2.047189 
	C1.166667,1.666667 1.315919,1.056198 1.502793,1.044456 
	C2.830883,0.961004 4.166667,1.000000 5.500000,1.000000 
	C219.333328,1.000000 433.166656,1.000000 647.000000,1.500000 
z"/>
<path fill="#F0F0F0" opacity="1.000000" stroke="none" 
	d="
M1.000000,434.500000 
	C3.829852,433.970917 6.659703,433.916443 9.489555,433.916382 
	C219.182770,433.912415 428.876007,433.912659 638.569214,433.914032 
	C641.067444,433.914062 643.565735,433.933136 646.531982,433.971680 
	C646.833374,434.333344 646.684082,434.943787 646.497192,434.955566 
	C645.169128,435.039001 643.833313,435.000000 642.500000,435.000000 
	C428.666656,435.000000 214.833328,435.000000 1.000000,434.500000 
z"/>
<path fill="#FFFFFF" opacity="1.000000" stroke="none" 
	d="
M633.933228,287.000000 
	C633.933105,295.433167 633.933105,303.366333 633.933105,311.299469 
	C633.479126,311.535583 633.025146,311.771667 632.571106,312.007751 
	C628.822754,308.189606 625.024963,304.418549 621.333862,300.545837 
	C595.471191,273.410461 569.638794,246.246353 543.780518,219.106934 
	C522.402527,196.669815 500.848816,174.397644 479.665161,151.778702 
	C465.293488,136.433273 448.212006,128.031311 426.936523,128.980591 
	C410.758820,129.702423 396.423645,135.305801 385.352325,147.081497 
	C367.212860,166.375107 349.721741,186.278580 331.974243,205.940292 
	C325.611969,212.988770 319.436737,220.211304 312.933838,227.126556 
	C301.229462,239.573074 281.108643,240.592117 268.012909,229.371613 
	C258.779816,221.460648 249.688889,213.375229 240.730392,205.154221 
	C224.200684,189.985336 206.101501,190.170471 190.368774,205.921494 
	C134.542145,261.813049 78.728233,317.717285 22.902042,373.609253 
	C21.438932,375.074066 19.890289,376.453461 17.404028,378.792236 
	C17.212719,375.669403 17.013147,373.930328 17.012926,372.191254 
	C16.998260,256.194824 17.030909,140.198380 16.895151,24.202108 
	C16.889194,19.112041 18.356199,17.753489 23.390360,17.756474 
	C224.717392,17.875835 426.044525,17.857540 627.371643,17.861183 
	C633.913147,17.861301 633.930359,17.881733 633.930664,24.507568 
	C633.934570,111.838379 633.933289,199.169189 633.933228,287.000000 
M139.930450,56.524761 
	C112.431786,40.407631 78.570374,47.184391 60.234489,72.474487 
	C46.368553,91.599335 45.200691,118.234718 57.363739,137.947159 
	C70.332085,158.964752 94.144867,170.254654 117.320503,166.373352 
	C142.323730,162.185944 161.684875,144.464539 166.883499,121.007935 
	C172.485382,95.731842 162.658447,71.799858 139.930450,56.524761 
z"/>
<path fill="#B3B3B3" opacity="1.000000" stroke="none" 
	d="
M140.244507,56.711166 
	C162.658447,71.799858 172.485382,95.731842 166.883499,121.007935 
	C161.684875,144.464539 142.323730,162.185944 117.320503,166.373352 
	C94.144867,170.254654 70.332085,158.964752 57.363739,137.947159 
	C45.200691,118.234718 46.368553,91.599335 60.234489,72.474487 
	C78.570374,47.184391 112.431786,40.407631 140.244507,56.711166 
z"/>
</svg>