<svg id="rutgers_logo" data-name="rutgers logo" xmlns="http://www.w3.org/2000/svg" viewBox="0 0 230 69.49"><defs><style>.cls-1{fill:#fff;}</style></defs><path class="cls-1" d="M110.44,40.869l1.173-.358V20.779c0-4.774,0-4.969,1.507-5.13l1.411-.119v-.842h-9.485v.842l1.4.119c1.507.161,1.507.356,1.507,5.13V36.671a9.4,9.4,0,0,1-7.077,3.134c-6.065,0-7.006-3.723-7.006-9.317V20.779c0-4.782,0-4.978,1.506-5.13l1.408-.119v-.842H87.318v.842l1.409.119c1.507.152,1.507.348,1.507,5.13V31.112c0,5.328.663,9.987,8.763,9.987,5.206,0,8.454-2.471,9-2.471s.9.554,1.448,1.1Zm0,0" transform="translate(0 -0.255)"/><path class="cls-1" d="M120.926,40.511H131.76v-.843l-1.408-.118c-2.189-.153-2.189-.348-2.189-5.131V15.786H130.2c5.515,0,5.6.588,6.456,5.131h.942c0-.16-.2-5.362-.357-6.229H115.449c-.16.867-.353,6.069-.353,6.229h.934c.862-4.519.942-5.131,6.461-5.131h2.032V34.419c0,4.783,0,4.978-2.153,5.131l-1.444.118Zm0,0" transform="translate(0 -0.255)"/><path class="cls-1" d="M161.672,35.362c0-3.81,0-4.007.753-4.167l1.409-.11v-.843h-9.945v.843l1.409.11c2.734.16,2.734.357,2.734,5.146V39.3a20.307,20.307,0,0,1-4.571.506c-7.668,0-11.07-6.2-11.07-12.87,0-7.316,4.029-11.541,10.44-11.541,6.7,0,7.2,4.774,7.59,6.343l1.055-.243c-.165-1.927-.376-4.12-.624-5.791a17.479,17.479,0,0,0-7.978-1.6c-6.183,0-14.6,3.135-14.6,13.558,0,9.971,7.042,13.42,14.907,13.42a26.062,26.062,0,0,0,8.563-1.534s-.074-3.006-.074-4.181Zm0,0" transform="translate(0 -0.255)"/><path class="cls-1" d="M166.265,40.511h17.928a65.372,65.372,0,0,0,1.287-6.5l-.98-.15c-.754,3.209-1.173,5.551-7.4,5.551a22.675,22.675,0,0,1-4.257-.506V27.61h3.472c3.052,0,3.766,0,3.986,1.642l.2,1.327h1.032V23.573h-1.032l-.2,1.326c-.235,1.6-.934,1.643-3.986,1.643H172.84V15.786h3.217c5.527,0,5.6.588,6.469,4.774l.934-.157c0-.354-.2-4.848-.353-5.715H166.265v.842l1.417.119c1.507.161,1.507.356,1.507,5.13V34.411c0,4.791,0,4.986-1.507,5.139l-1.417.118Zm0,0" transform="translate(0 -0.255)"/><path class="cls-1" d="M188.508,40.511h9.467v-.843l-1.409-.118c-1.507-.153-1.507-.348-1.507-5.131V29.261h1.448a3.914,3.914,0,0,1,2.425.506,17.637,17.637,0,0,1,2.424,3.84l1.561,3.013c1.173,2.154,2.974,3.9,5.559,3.9h3.013v-.851a4.125,4.125,0,0,1-1.962-.388c-.977-.554-2.695-2.864-4.335-5.8-1.062-1.883-2.35-4.391-2.938-5.493,2.154-1.016,5.4-3.169,5.4-6.779,0-5.939-5.272-6.484-8.951-6.484H188.508v.843l1.408.122c1.507.157,1.507.353,1.507,5.131v13.6c0,4.783,0,4.978-1.507,5.131l-1.408.118Zm6.575-24.219a12.94,12.94,0,0,1,2.425-.31c3.012,0,6.025,1.408,6.025,6.026,0,4.42-2.966,6.174-6.249,6.174h-2.26Zm0,0" transform="translate(0 -0.255)"/><path class="cls-1" d="M220.036,24.471c-2.118-1.251-3.766-2.5-3.766-4.813a4.151,4.151,0,0,1,4.225-4.264c4.421,0,5.045,3.4,5.438,5.363h.98c-.09-1.146-.188-4.015-.393-5.4a10.918,10.918,0,0,0-5.4-1.26c-4.142,0-8.132,2-8.132,6.779a7.849,7.849,0,0,0,4.3,6.575l2.507,1.373c3.052,1.36,5.441,3.318,5.441,6.174a4.49,4.49,0,0,1-4.7,4.813c-5.359,0-6.779-4.657-7.242-7.472l-1.248.317c.444,2.679.879,5.406,1.248,6.885a11.2,11.2,0,0,0,6.147,1.565c4.143,0,9.039-2.04,9.039-7.32,0-4.692-3.2-6.335-6.3-8.1Zm0,0" transform="translate(0 -0.255)"/><path class="cls-1" d="M78.324,25.609c.443,2.474,3.9,8.842,5.228,11.216,3.013,5.519,10.67,16.7,16.418,16.334h.663v.9H99.625c-8.121.318-15.374-8.728-19.583-15.981-1.718-2.943-3.382-6.371-4.865-9.443a3.647,3.647,0,0,0-1.357-1.62,5.91,5.91,0,0,0-2.7-.416H68.351v6.524a29.191,29.191,0,0,0,.236,5.332c.255.917.812,1.039,1.737,1.136l1.566.212v.753H60.819v-.753l1.6-.13c.942-.1,1.506-.214,1.777-1.136a28.4,28.4,0,0,0,.244-5.332V16.4a28.4,28.4,0,0,0-.244-5.335c-.262-.918-.835-1.04-1.777-1.138l-1.6-.126V9.046h7.532C75.008,9.046,84,8.1,84,17.456c0,3.766-2.578,6.254-5.724,7.8.02.176.052.357.052.357Zm-9.973.007c1.2.059,2.488,0,3.684,0,4.633,0,7.465-2.486,7.465-7.119,0-5.029-2.879-8.12-8.007-8.12a16.475,16.475,0,0,0-3.134.407Zm0,0" transform="translate(0 -0.255)"/><path class="cls-1" d="M31.716,2.9H27.829L27.4,13.6a2.372,2.372,0,0,1,.345.071Zm0,0" transform="translate(0 -0.255)"/><polygon class="cls-1" points="38.059 16.351 46.223 10.416 46.223 3.15 36.62 16.351 38.059 16.351"/><polygon class="cls-1" points="33.509 15.884 45.756 2.644 39.225 2.644 33.199 15.676 33.509 15.884"/><polygon class="cls-1" points="30.743 14.37 37.923 2.644 33.206 2.644 30.422 14.221 30.743 14.37"/><path class="cls-1" d="M46.223,16.606V12.443l-4.5,4.163Zm0,0" transform="translate(0 -0.255)"/><path class="cls-1" d="M24.427,13.346h.239L26.279,2.9H22.635L24.283,13.33Zm0,0" transform="translate(0 -0.255)"/><path class="cls-1" d="M21.5,13.616,21.073,2.9H17.182l3.974,10.773a2.692,2.692,0,0,1,.341-.056Zm0,0" transform="translate(0 -0.255)"/><polygon class="cls-1" points="12.286 16.351 2.683 3.15 2.683 10.416 10.847 16.351 12.286 16.351"/><polygon class="cls-1" points="15.679 15.688 9.67 2.644 3.169 2.644 15.393 15.884 15.679 15.688"/><polygon class="cls-1" points="18.476 14.236 15.687 2.644 10.973 2.644 18.151 14.358 18.476 14.236"/><path class="cls-1" d="M2.683,12.443v4.163h4.5Zm0,0" transform="translate(0 -0.255)"/><path class="cls-1" d="M0,.255V36.738A23.632,23.632,0,0,0,5.92,52.366c6.779,7.6,16.978,9.485,18.123,9.674h.608c.459-.07,11.255-1.726,18.32-9.693a22.981,22.981,0,0,0,3.84-6.026,25.241,25.241,0,0,0,2.048-9.658V.255ZM47.616,36.71a23.968,23.968,0,0,1-1.943,9.164,21.871,21.871,0,0,1-3.636,5.665c-6.779,7.645-17.13,9.226-17.566,9.3h-.227c-1.1-.185-10.922-2-17.391-9.274A22.392,22.392,0,0,1,1.243,36.71V1.507H47.616Zm0,0" transform="translate(0 -0.255)"/><path class="cls-1" d="M11.4,32.748v1.311h1.287v-1.2l-.008-.114Zm0,0" transform="translate(0 -0.255)"/><path class="cls-1" d="M8.964,31.83v.083h3.692V27.649L12.5,27.7a2.6,2.6,0,0,1-.805.176h-.211a4.37,4.37,0,0,1-1.851-.408l-.173-.09a1.508,1.508,0,0,0-2.119,1.44c0,.5.1.682.753,1.384a4.091,4.091,0,0,1,.868,1.628Zm0,0" transform="translate(0 -0.255)"/><rect class="cls-1" x="16.056" y="32.493" width="1.291" height="1.311"/><path class="cls-1" d="M2.688,36.745a20.979,20.979,0,0,0,5.272,13.9c5.35,6.026,13.267,8.105,15.817,8.639V18.014H2.688Zm6.589,4.9H7.229v-.157l.393-.051c.27,0,.27-.086.27-.753V39.111c0-.753-.043-.753-.164-.753a1.735,1.735,0,0,0-.2,0l-.4.07L7.073,38.3l1.451-.506.091.071v2.844c0,.647,0,.7.267.753l.395.054Zm9.364-5.217H7.7v-.393H18.641ZM7.673,35.64v-.354H18.641v.393Zm4.068,4.476a6.673,6.673,0,0,0-.585,1.648l-.07.046a1.378,1.378,0,0,1-.608-.447,12.316,12.316,0,0,1,1.384-2.056,2.489,2.489,0,0,0,.393-.894H11.109c-.678,0-.616,0-.8.474l-.158-.054a2.657,2.657,0,0,1,.2-.985h2.425l.054.066a13.474,13.474,0,0,1-1.062,2.213Zm2.938,1.611c-.753,0-1.342-.529-1.342-1.636a2.111,2.111,0,0,1,2.056-2.349,1.625,1.625,0,0,1,.58.106l-.051.172a1.281,1.281,0,0,0-.383-.055c-.821,0-1.449.679-1.449,2.044,0,.868.252,1.506.754,1.506.4,0,.549-.407.549-.753,0-.58-.337-1.094-.8-1.094H14.44v-.11a.964.964,0,0,1,1.612.757,1.31,1.31,0,0,1-1.342,1.424Zm3.323,0c-.753,0-1.333-.529-1.333-1.636a2.1,2.1,0,0,1,2.047-2.349,1.629,1.629,0,0,1,.58.106l-.05.172a1.294,1.294,0,0,0-.385-.055c-.824,0-1.448.679-1.448,2.044,0,.868.248,1.506.754,1.506.4,0,.549-.407.549-.753,0-.58-.329-1.094-.8-1.094h-.161v-.11a1.03,1.03,0,0,1,.663-.251.987.987,0,0,1,.972.981,1.317,1.317,0,0,1-1.365,1.451ZM13.2,23.521a.963.963,0,1,1-.957.958.962.962,0,0,1,.957-.958ZM8.85,26.111a2.723,2.723,0,0,1,1.137.251l.158.075a3.142,3.142,0,0,0,1.357.3h.156a1.512,1.512,0,0,0,1.229-.808h.639a1.516,1.516,0,0,0,1.227.808h.162a3.232,3.232,0,0,0,1.271-.263l.31-.153a2.659,2.659,0,0,1,1.047-.212,2.728,2.728,0,0,1,2.727,2.726,3.264,3.264,0,0,1-1.017,2.142.1.1,0,0,0-.047.043,2.948,2.948,0,0,0-.753,1.506v.64a2.664,2.664,0,0,0,.228.973V34.8H7.713v-.607a2.921,2.921,0,0,0,.247-1.162,2.8,2.8,0,0,0-.789-1.958l-.047-.055a3.166,3.166,0,0,1-.985-2.177A2.726,2.726,0,0,1,8.85,26.111Zm0,0" transform="translate(0 -0.255)"/><rect class="cls-1" x="9.069" y="32.493" width="1.287" height="1.311"/><path class="cls-1" d="M17.445,31.83a4.063,4.063,0,0,1,.918-1.62,3.214,3.214,0,0,0,.753-1.392,1.56,1.56,0,0,0-1.558-1.562,1.6,1.6,0,0,0-.595.122l-.181.09-.138.067a4.372,4.372,0,0,1-1.718.349H14.7a2.589,2.589,0,0,1-.8-.184l-.149-.051v4.272h3.683Zm0,0" transform="translate(0 -0.255)"/><rect class="cls-1" x="13.73" y="32.493" width="1.287" height="1.311"/><path class="cls-1" d="M31.951,34.278a4.573,4.573,0,0,0,.656-.106,2.9,2.9,0,0,1,.607-.074,2.729,2.729,0,0,1,1.146.231v-.49a3.384,3.384,0,0,0-1.154-.2,3.437,3.437,0,0,0-.69.086,5.1,5.1,0,0,1-.6.1,3.654,3.654,0,0,1-1.078-.087V34.2a4.227,4.227,0,0,0,1.117.079Zm0,0" transform="translate(0 -0.255)"/><path class="cls-1" d="M31.951,33.027a5.378,5.378,0,0,0,.656-.1,2.641,2.641,0,0,1,.607-.082,2.737,2.737,0,0,1,1.146.239V32.6a3.107,3.107,0,0,0-1.154-.208,3.175,3.175,0,0,0-.69.089,3.846,3.846,0,0,1-.6.091,3.8,3.8,0,0,1-1.078-.075v.467a4.272,4.272,0,0,0,1.117.067Zm0,0" transform="translate(0 -0.255)"/><path class="cls-1" d="M31.951,31.783a4.868,4.868,0,0,0,.656-.105,3.12,3.12,0,0,1,.607-.075,2.733,2.733,0,0,1,1.146.235v-.491a2.968,2.968,0,0,0-1.154-.2,3.5,3.5,0,0,0-.69.082,4.551,4.551,0,0,1-.6.1,3.864,3.864,0,0,1-1.078-.082v.467a4.311,4.311,0,0,0,1.117.074Zm0,0" transform="translate(0 -0.255)"/><path class="cls-1" d="M31.951,29.261a4.292,4.292,0,0,0,.656-.1,2.9,2.9,0,0,1,.607-.075,2.81,2.81,0,0,1,1.146.232v-.49a3.042,3.042,0,0,0-1.154-.2,3.5,3.5,0,0,0-.69.082,5.1,5.1,0,0,1-.6.1,4.118,4.118,0,0,1-1.078-.083v.467a3.917,3.917,0,0,0,1.117.067Zm0,0" transform="translate(0 -0.255)"/><path class="cls-1" d="M31.951,30.532a4.7,4.7,0,0,0,.656-.1,2.588,2.588,0,0,1,.607-.083,2.82,2.82,0,0,1,1.146.243V30.1a3.237,3.237,0,0,0-1.154-.212,3.443,3.443,0,0,0-.69.09,3.429,3.429,0,0,1-.6.091A3.691,3.691,0,0,1,30.834,30v.468a4.315,4.315,0,0,0,1.117.066Zm0,0" transform="translate(0 -0.255)"/><path class="cls-1" d="M31.951,28.04a5.188,5.188,0,0,0,.656-.1,2.587,2.587,0,0,1,.607-.082,2.751,2.751,0,0,1,1.146.238V27.61a3.107,3.107,0,0,0-1.154-.208,2.728,2.728,0,0,0-.69.09,3.963,3.963,0,0,1-.6.089,4.029,4.029,0,0,1-1.078-.074v.467a4.6,4.6,0,0,0,1.117.066Zm0,0" transform="translate(0 -0.255)"/><path class="cls-1" d="M32.077,35.981a4.371,4.371,0,0,1,3.012.369v-.377l-.113-.063a3.226,3.226,0,0,0-1.706-.466h-.319a5.465,5.465,0,0,0-.753.089,5.986,5.986,0,0,1-2.365-.117h-.148V26.947l-.409-.1V35.7a6.3,6.3,0,0,0,2.8.286Zm0,0" transform="translate(0 -0.255)"/><path class="cls-1" d="M32.077,36.793a4.4,4.4,0,0,1,3.012.368v-.368h-.113a3.967,3.967,0,0,0-2.817-.369,6.85,6.85,0,0,1-3.177-.385h-.141V27.2l-.409-.13v9.191a7.217,7.217,0,0,0,3.645.534Zm0,0" transform="translate(0 -0.255)"/><path class="cls-1" d="M38.789,32.929a5.491,5.491,0,0,0,.663.1,4.254,4.254,0,0,0,1.115-.067v-.467a3.858,3.858,0,0,1-1.679-.016,3.182,3.182,0,0,0-.7-.089,3.084,3.084,0,0,0-1.148.208v.49a2.755,2.755,0,0,1,1.18-.239,2.3,2.3,0,0,1,.565.082Zm0,0" transform="translate(0 -0.255)"/><path class="cls-1" d="M39.322,35.981a6.358,6.358,0,0,0,2.84-.286V26.844l-.4.1v8.437h-.149a6.085,6.085,0,0,1-2.366.122,5.376,5.376,0,0,0-.753-.09h-.346a3.2,3.2,0,0,0-1.71.466l-.113.06v.376a4.376,4.376,0,0,1,3-.337Zm0,0" transform="translate(0 -0.255)"/><path class="cls-1" d="M38.789,31.678a4.97,4.97,0,0,0,.663.105,4.3,4.3,0,0,0,1.115-.074v-.467a3.85,3.85,0,0,1-1.076.082,4.537,4.537,0,0,1-.6-.1,3.826,3.826,0,0,0-.664-.082,2.98,2.98,0,0,0-1.153.2v.491a2.778,2.778,0,0,1,1.153-.235,2.887,2.887,0,0,1,.565.075Zm0,0" transform="translate(0 -0.255)"/><path class="cls-1" d="M25.142,59.283c2.53-.534,10.446-2.622,15.816-8.639a20.944,20.944,0,0,0,5.273-13.9V18.014H25.142ZM32.622,40.6l-.807-.428L31,40.6l.157-.9-.655-.648.9-.13.409-.819.383.828.9.129-.655.64Zm7.772,0-.8-.428-.816.428.158-.9-.656-.648.907-.13.407-.819.4.819.907.13-.656.64Zm-4.43-5.963V26.871a3.553,3.553,0,0,1,2.319-.753,5.535,5.535,0,0,1,1.078.107c.154.027.307.043.459.055a6.575,6.575,0,0,0,1.743-.177l.239-.051v.467c.172-.043.353-.091.541-.15l.259-.078v.467l.518-.181.262-.1V36.53l-.125.044a7.676,7.676,0,0,1-3.97.611,4.046,4.046,0,0,0-2.8.361h-.526Zm.181,5.4.9.13-.656.638.154.907-.844-.4-.817.427.161-.9-.654-.639.9-.13.408-.819ZM28.1,26.48l.262.1.518.181v-.467l.259.078c.188.059.361.107.542.15v-.467l.239.051a6.535,6.535,0,0,0,1.741.177c.154-.012.306-.028.459-.055a5.538,5.538,0,0,1,1.076-.107,3.549,3.549,0,0,1,2.321.753V37.546h-.6a4.026,4.026,0,0,0-2.758-.338,7.631,7.631,0,0,1-3.967-.612l-.128-.047Zm0,0" transform="translate(0 -0.255)"/><path class="cls-1" d="M39.322,36.793a7.242,7.242,0,0,0,3.633-.542V27.068l-.392.13v8.787h-.146a6.781,6.781,0,0,1-3.169.34,3.982,3.982,0,0,0-2.817.37h-.113v.369a4.383,4.383,0,0,1,3-.271Zm0,0" transform="translate(0 -0.255)"/><path class="cls-1" d="M38.789,34.172a4.668,4.668,0,0,0,.663.106,4.218,4.218,0,0,0,1.115-.079v-.467a3.64,3.64,0,0,1-1.076.087,5.084,5.084,0,0,1-.6-.1,3.753,3.753,0,0,0-.7-.086,3.359,3.359,0,0,0-1.148.2v.49a2.691,2.691,0,0,1,1.18-.231,2.742,2.742,0,0,1,.565.074Zm0,0" transform="translate(0 -0.255)"/><path class="cls-1" d="M38.789,29.186a4.261,4.261,0,0,0,.663.1,3.9,3.9,0,0,0,1.115-.072v-.466a3.814,3.814,0,0,1-1.076.083,4.53,4.53,0,0,1-.6-.095,3.753,3.753,0,0,0-.7-.086,3,3,0,0,0-1.148.2v.49a2.691,2.691,0,0,1,1.18-.231,2.742,2.742,0,0,1,.565.074Zm0,0" transform="translate(0 -0.255)"/><path class="cls-1" d="M38.789,27.943a5.3,5.3,0,0,0,.663.1,4.589,4.589,0,0,0,1.115-.066v-.467a4,4,0,0,1-1.076.074,3.878,3.878,0,0,1-.6-.089,2.763,2.763,0,0,0-.7-.09,3.084,3.084,0,0,0-1.148.208V28.1a2.755,2.755,0,0,1,1.18-.238,2.249,2.249,0,0,1,.565.082Zm0,0" transform="translate(0 -0.255)"/><path class="cls-1" d="M38.789,30.434a4.8,4.8,0,0,0,.663.1,4.3,4.3,0,0,0,1.115-.066v-.452a3.7,3.7,0,0,1-1.076.075,3.363,3.363,0,0,1-.6-.091,3.446,3.446,0,0,0-.7-.09,3.191,3.191,0,0,0-1.148.212v.49a2.773,2.773,0,0,1,1.18-.259,2.686,2.686,0,0,1,.565.083Zm0,0" transform="translate(0 -0.255)"/><path class="cls-1" d="M117.29,64.271a3.806,3.806,0,0,1-2.653,1.068c-2.431,0-3.911-2.151-3.911-4.662a5.7,5.7,0,0,1,1.075-3.46,3.479,3.479,0,0,1,2.793-1.279,3.923,3.923,0,0,1,2.473.827l.1-.075a3.921,3.921,0,0,1,.111-.8l-.069-.119a5.048,5.048,0,0,0-2.584-.663c-2.836,0-4.861,2.211-4.861,5.61a6.2,6.2,0,0,0,1.286,3.942,4.4,4.4,0,0,0,3.492,1.519,4.539,4.539,0,0,0,2.722-.8l.07-.151a4.908,4.908,0,0,1,.07-.888l-.112-.075" transform="translate(0 -0.255)"/><path class="cls-1" d="M125.412,62.03c0-.5-.015-3.956-3.143-3.956-1.913,0-3.31,1.263-3.31,4,0,2.979,1.495,4.061,3.227,4.061s3.226-1.158,3.226-4.106Zm-.935,0c0,2.692-1.132,3.309-2.305,3.309-1.509,0-2.277-1.2-2.277-3.234,0-1.489.405-3.248,2.319-3.248,1.271,0,2.263.948,2.263,3.173" transform="translate(0 -0.255)"/><path class="cls-1" d="M127.7,65.986c.1,0,.616-.03.826-.03l.083-.091c-.07-1.94-.111-4-.125-5.955a3.683,3.683,0,0,1,2.262-1.007,1.4,1.4,0,0,1,1.4.916,27.2,27.2,0,0,1,.182,3.985c0,.692-.014,1.384-.028,2.076l.069.106c.084,0,.558-.03.837-.03l.085-.091c-.085-1.624-.085-2.887-.113-4.617a4.753,4.753,0,0,0-.292-2.135,1.989,1.989,0,0,0-1.886-1.039,4.227,4.227,0,0,0-2.542.963c0-.255.043-.616.057-.783l-.085-.089c-.251.045-.559.089-.852.151l-.069.1c.083.856.126,2.225.126,2.586,0,.331.028,2.317.028,2.843,0,.722-.028,1.64-.028,2.046l.068.09" transform="translate(0 -0.255)"/><path class="cls-1" d="M138.7,58.962c.014-.361.014-.511.028-.646l-.069-.106c-.266,0-1.217.044-1.607.044.042-.932.056-1.713.07-2.06l-.084-.089c-.265.059-.516.135-.81.21l-.1.089c.028.5.028,1.22.054,1.85-.194,0-.781-.029-1.1-.029l-.083.091a5,5,0,0,0-.028.616l.07.1c.307,0,.95-.029,1.13-.029v1.368c0,1.247-.012,2.5-.012,3.353a3.266,3.266,0,0,0,.334,1.79,1.545,1.545,0,0,0,1.313.542,3.015,3.015,0,0,0,.741-.09l.1-.136c0-.225.028-.556.042-.676l-.113-.076a1.5,1.5,0,0,1-.643.165c-.6,0-.726-.3-.8-.526a4.616,4.616,0,0,1-.1-1.233V59.008c.517.014,1.285.014,1.564.029l.1-.075" transform="translate(0 -0.255)"/><path class="cls-1" d="M140.439,55.8c.294-.029.755-.059.9-.091l.1-.119c0-.18.014-.617.014-.933l-.1-.12c-.279.014-.6.06-.9.09l-.111.121c0,.18-.014.632-.014.932l.111.12Zm1.049,10.062c-.085-1.924-.14-4.03-.14-5.955,0-.587.014-.934.041-1.624l-.083-.091-.839.135-.082.091c.111,1.85.125,4.422.125,5.564,0,.466-.014,1.519-.014,1.911l.069.075s.153,0,.838-.015l.085-.091" transform="translate(0 -0.255)"/><path class="cls-1" d="M144.166,65.986c.1,0,.615-.03.825-.03l.084-.091c-.071-1.94-.112-4-.126-5.955a3.686,3.686,0,0,1,2.263-1.007,1.4,1.4,0,0,1,1.4.916,27.347,27.347,0,0,1,.181,3.985c0,.692-.014,1.384-.028,2.076l.07.106c.084,0,.558-.03.837-.03l.085-.091c-.085-1.624-.085-2.887-.113-4.617a4.753,4.753,0,0,0-.292-2.135,1.989,1.989,0,0,0-1.886-1.039,4.225,4.225,0,0,0-2.542.963c0-.255.042-.616.056-.783l-.084-.089c-.251.045-.559.089-.853.151l-.068.1c.082.856.126,2.225.126,2.586,0,.331.028,2.317.028,2.843,0,.722-.028,1.64-.028,2.046l.068.09" transform="translate(0 -0.255)"/><path class="cls-1" d="M158.089,65.865c-.1-1.94-.113-3.911-.113-5.85,0-.571.014-1.144.028-1.715l-.083-.1a5.232,5.232,0,0,1-.809.045l-.085.12c.028.572.057,1.249.071,1.82.04,1.429.04,2.768.04,4.2a2.953,2.953,0,0,1-2.135.978,1.658,1.658,0,0,1-1.258-.557c-.266-.331-.432-.633-.432-2.227v-1.4c0-.963.027-1.925.055-2.873l-.084-.09c-.195,0-.655.015-.837.03l-.085.1c.042.843.056,1.67.056,2.5v1.142a9.245,9.245,0,0,0,.14,2.528,2.118,2.118,0,0,0,2.235,1.624,3.223,3.223,0,0,0,2.374-.932s-.014.48-.029.722l.1.089s.279-.014.767-.059l.085-.091" transform="translate(0 -0.255)"/><path class="cls-1" d="M160.624,55.8c.3-.029.756-.059.9-.091l.1-.119c0-.18.014-.617.014-.933l-.1-.12c-.279.014-.6.06-.894.09l-.112.121c0,.18-.014.632-.014.932l.111.12Zm1.049,10.062c-.084-1.924-.14-4.03-.14-5.955,0-.587.014-.934.042-1.624l-.084-.091-.838.135-.083.091c.112,1.85.126,4.422.126,5.564,0,.466-.014,1.519-.014,1.911l.068.075s.154,0,.839-.015l.084-.091" transform="translate(0 -0.255)"/><path class="cls-1" d="M164.351,65.986c.1,0,.616-.03.826-.03l.083-.091c-.07-1.94-.111-4-.125-5.955A3.686,3.686,0,0,1,167.4,58.9a1.4,1.4,0,0,1,1.4.916,27.2,27.2,0,0,1,.182,3.985c0,.692-.014,1.384-.028,2.076l.069.106c.084,0,.558-.03.838-.03l.084-.091c-.084-1.624-.084-2.887-.113-4.617a4.753,4.753,0,0,0-.292-2.135,1.989,1.989,0,0,0-1.886-1.039,4.227,4.227,0,0,0-2.542.963c0-.255.043-.616.057-.783l-.085-.089c-.251.045-.559.089-.852.151l-.069.1c.083.856.126,2.225.126,2.586,0,.331.028,2.317.028,2.843,0,.722-.028,1.64-.028,2.046l.068.09" transform="translate(0 -0.255)"/><path class="cls-1" d="M178.2,58.21H176.36c-.209,0-.362-.015-1.146-.015a2.653,2.653,0,0,0-2.958,2.768,2.435,2.435,0,0,0,1.3,2.286,12.567,12.567,0,0,1-.781,1.353l.042.166c.209.075.405.18.614.27a2.848,2.848,0,0,0-1.341,2.286c0,1.37,1.2,2.421,2.962,2.421a2.711,2.711,0,0,0,3-2.54,2.244,2.244,0,0,0-1.8-2.167l-2.389-.767c.14-.27.28-.556.447-.812a2.337,2.337,0,0,0,.7.1,2.545,2.545,0,0,0,2.639-2.6,2.5,2.5,0,0,0-.934-2.017c.446.03,1.1.062,1.395.091l.1-.091c.014-.1.028-.48.056-.616l-.056-.12Zm-1.425,2.648a1.811,1.811,0,0,1-1.83,1.985,1.771,1.771,0,0,1-1.829-1.88,1.832,1.832,0,0,1,1.886-2,1.767,1.767,0,0,1,1.773,1.9Zm-2.709,4.406,1.4.436c1.509.466,1.676,1.023,1.676,1.594a1.805,1.805,0,0,1-2.039,1.7,1.877,1.877,0,0,1-2.15-1.805,2.52,2.52,0,0,1,1.116-1.925" transform="translate(0 -0.255)"/><path class="cls-1" d="M190.065,56.571l.083-.738-.083-.121a4.444,4.444,0,0,0-2.346-.6c-2.932,0-3.129,2.271-3.129,2.753a3,3,0,0,0,2.039,2.662l1.131.512c.74.33,1.815.857,1.815,2.15a2.163,2.163,0,0,1-2.345,2.181,3.078,3.078,0,0,1-2.389-1.053l-.14.03c-.014.226-.028.6-.054.9l.054.166a4.446,4.446,0,0,0,2.529.768,2.989,2.989,0,0,0,3.254-3.024,3.1,3.1,0,0,0-2.151-2.9l-1.158-.526c-.937-.422-1.69-.812-1.69-1.911,0-.977.655-1.909,2.206-1.909a3.614,3.614,0,0,1,2.234.737l.14-.075" transform="translate(0 -0.255)"/><path class="cls-1" d="M195.54,58.962c.014-.361.014-.511.028-.646l-.069-.106c-.265,0-1.216.044-1.607.044.042-.932.056-1.713.071-2.06l-.085-.089c-.265.059-.516.135-.809.21l-.1.089c.028.5.028,1.22.055,1.85-.194,0-.782-.029-1.1-.029l-.083.091a4.826,4.826,0,0,0-.029.616l.071.1c.306,0,.95-.029,1.129-.029v1.368c0,1.247-.012,2.5-.012,3.353a3.257,3.257,0,0,0,.335,1.79,1.543,1.543,0,0,0,1.312.542,3.033,3.033,0,0,0,.742-.09l.1-.136c0-.225.028-.556.042-.676l-.112-.076a1.507,1.507,0,0,1-.643.165c-.6,0-.726-.3-.795-.526a4.565,4.565,0,0,1-.1-1.233V59.008c.517.014,1.286.014,1.565.029l.1-.075" transform="translate(0 -0.255)"/><path class="cls-1" d="M202.979,65.865c-.1-1.94-.113-3.911-.113-5.85,0-.571.014-1.144.028-1.715l-.083-.1a5.232,5.232,0,0,1-.809.045l-.085.12c.028.572.056,1.249.07,1.82.041,1.429.041,2.768.041,4.2a2.953,2.953,0,0,1-2.135.978,1.658,1.658,0,0,1-1.258-.557c-.266-.331-.433-.633-.433-2.227v-1.4c0-.963.028-1.925.056-2.873l-.084-.09c-.195,0-.655.015-.837.03l-.086.1c.043.843.057,1.67.057,2.5v1.142a9.245,9.245,0,0,0,.14,2.528,2.118,2.118,0,0,0,2.235,1.624,3.226,3.226,0,0,0,2.374-.932s-.014.48-.029.722l.1.089s.279-.014.767-.059l.085-.091" transform="translate(0 -0.255)"/><path class="cls-1" d="M211.355,65.88c-.1-1.354-.111-6.8-.111-7.911,0-1.293.014-2.572.028-3.865l-.084-.091c-.293.061-.572.121-.851.166l-.1.09c.114,1.308.114,2.617.126,3.926,0,0-.544-.016-.724-.016a4.423,4.423,0,0,0-3.451,1.219,4.173,4.173,0,0,0-.978,2.828,3.93,3.93,0,0,0,1.662,3.444,2.756,2.756,0,0,0,1.467.391,2.858,2.858,0,0,0,2.109-.857V65.9l.084.09a6.105,6.105,0,0,1,.74-.03l.083-.076Zm-5.236-3.7c0-3.158,2.514-3.234,3.52-3.234a5.559,5.559,0,0,1,.739.03c0,1.279.042,4.2.056,5.34a2.48,2.48,0,0,1-1.941.918c-1.508,0-2.374-1.339-2.374-3.054" transform="translate(0 -0.255)"/><path class="cls-1" d="M213.95,55.8c.294-.029.755-.059.9-.091l.1-.119c0-.18.014-.617.014-.933l-.1-.12c-.279.014-.6.06-.9.09l-.111.121c0,.18-.014.632-.014.932l.111.12ZM215,65.865c-.085-1.924-.14-4.03-.14-5.955,0-.587.014-.934.041-1.624l-.083-.091-.839.135-.082.091c.111,1.85.125,4.422.125,5.564,0,.466-.014,1.519-.014,1.911l.069.075s.153,0,.838-.015l.085-.091" transform="translate(0 -0.255)"/><path class="cls-1" d="M223.418,61.9V61.79c0-2.919-1.578-3.716-2.946-3.716a3.08,3.08,0,0,0-3,2.151,5.866,5.866,0,0,0-.307,1.85c0,2.5,1.354,4.046,3.491,4.046a3.916,3.916,0,0,0,2.417-.736l.07-.151c.013-.286.027-.571.055-.857l-.111-.075a3.293,3.293,0,0,1-2.305.992,2.541,2.541,0,0,1-2.206-1.2,3.892,3.892,0,0,1-.517-2.03V62h5.279l.084-.1Zm-5.322-.662a2.778,2.778,0,0,1,1.188-2.12,2.2,2.2,0,0,1,1.131-.3,2.03,2.03,0,0,1,2.039,1.91,4.749,4.749,0,0,1,.042.512h-4.4" transform="translate(0 -0.255)"/><path class="cls-1" d="M229.566,59.5c.028-.3.071-.721.1-.872l-.055-.1a4.1,4.1,0,0,0-1.887-.452,2.3,2.3,0,0,0-2.555,2.151,2.065,2.065,0,0,0,1.8,2.046l.685.211c1.046.315,1.465.6,1.465,1.4,0,1.068-.907,1.489-1.773,1.489a2.65,2.65,0,0,1-2.026-.857l-.111.046a4.9,4.9,0,0,1-.084.872l.07.119a3.685,3.685,0,0,0,2.109.587,2.365,2.365,0,0,0,2.7-2.361,2.14,2.14,0,0,0-1.8-2.061l-.727-.21c-.963-.286-1.424-.541-1.424-1.294,0-.9.782-1.323,1.593-1.323a2.8,2.8,0,0,1,1.858.646l.068-.03" transform="translate(0 -0.255)"/></svg>